<svg xmlns="http://www.w3.org/2000/svg" xmlns:xlink="http://www.w3.org/1999/xlink" width="890.359" height="386.855" viewBox="0 0 890.359 386.855">
  <defs>
    <clipPath id="clip-path">
      <rect id="Rectangle_1662" data-name="Rectangle 1662" width="890.359" height="386.855" fill="none"/>
    </clipPath>
    <clipPath id="clip-path-2">
      <rect id="Rectangle_1663" data-name="Rectangle 1663" width="890.359" height="386.855" fill="none" stroke="rgba(0,0,0,0)" stroke-width="1"/>
    </clipPath>
  </defs>
  <g id="Group_2487" data-name="Group 2487" style="mix-blend-mode: luminosity;isolation: isolate">
    <path id="Path_19120" data-name="Path 19120" d="M97.523,352.733l2.09,10.157L3.272,418.423l1.454,9.452,31.629,18.178,79.89-6.271,50.806-29.265-20.813-12.27,34.628-20-2.546-13.633,18.36-10.724-1.272-9.452-24.9-14.361Z" transform="translate(-0.587 -59.198)" fill="#ccdefe"/>
    <g id="Group_2484" data-name="Group 2484">
      <g id="Group_2483" data-name="Group 2483" clip-path="url(#clip-path)">
        <path id="Path_19121" data-name="Path 19121" d="M664.646,281.173s-8.4-17.464-41.254-34.2L394.491,307s-17.177,7.271-34.264,24.9c0,0-24,28.9,13.451,58.532,0,0,36.9,27.448,76.346,29.63,0,0,39.687,3.817,74.83-15.451l112.834-65.167s45.034-21.653,26.957-58.27" transform="translate(-63.247 -44.294)" fill="#ccdefe"/>
        <path id="Path_19122" data-name="Path 19122" d="M614.629,301.395a6.144,6.144,0,0,1-.359,1.029c-3.041,6.867-19.674,17.963-19.674,17.963L508.29,369.93c-27.266,15.679-48.4,10.225-48.4,10.225-24.812-7.5-23.04-15.133-23.04-15.133,5.862-11.316,21.4-20.041,21.4-20.041l26.039-15L586.408,284.7c29.175,6.658,28.221,16.693,28.221,16.693" transform="translate(-78.342 -51.06)" fill="#ebf2ff"/>
        <path id="Path_19123" data-name="Path 19123" d="M880.884,296.217l-31.9,18.632,1.272,9.361,80.254,78.982,50.171,28.9,28.175-16.178,1.818,1.454,31.947-18.859-1.432-9.68L1022.033,378.2l-1.659-14.7-72.6-28.107Z" transform="translate(-152.26 -53.125)" fill="#ccdefe"/>
      </g>
    </g>
    <path id="Path_19124" data-name="Path 19124" d="M1007.391,257.672v50.163l-18.759-10.83v42.563l-45.089-26.032V270.973L846.948,215.2V167.32L920.67,24.05,971.682,53.5,899.935,195.633l43.607,25.177V150.884l45.089,26.032v69.926Z" transform="translate(-151.895 -4.313)" fill="#acc8fe"/>
    <path id="Path_19125" data-name="Path 19125" d="M1042.454,354.84V304.676l32.108-18.538V336.3l-18.759,10.83Z" transform="translate(-186.958 -51.317)" fill="#acc8fe"/>
    <path id="Path_19126" data-name="Path 19126" d="M1038.354,302.309l-18.759-10.83L1051.7,272.94l18.759,10.831Z" transform="translate(-182.859 -48.95)" fill="#fff"/>
    <path id="Path_19127" data-name="Path 19127" d="M1019.595,276.2V206.272l32.108-18.538v69.925Z" transform="translate(-182.859 -33.669)" fill="#acc8fe"/>
    <path id="Path_19128" data-name="Path 19128" d="M955.122,254.256l-43.607-25.177,32.108-18.538,11.5,6.639Z" transform="translate(-163.475 -37.759)" fill="#fff"/>
    <path id="Path_19129" data-name="Path 19129" d="M1019.595,356.656l18.759,10.831,13.349-7.708v20.9l-32.108,18.538Z" transform="translate(-182.859 -63.964)" fill="#acc8fe"/>
    <path id="Path_19130" data-name="Path 19130" d="M987.793,49.45,936.78,20,968.888,1.461,1019.9,30.913Z" transform="translate(-168.006 -0.262)" fill="#fff"/>
    <path id="Path_19131" data-name="Path 19131" d="M911.515,198.018,983.261,55.887l32.108-18.538-57.8,114.509-2.444,1.411V156.7l-11.5,22.78Z" transform="translate(-163.475 -6.698)" fill="#acc8fe"/>
    <path id="Path_19132" data-name="Path 19132" d="M1009.741,200.583l-45.089-26.032,2.444-1.411,29.664-17.127,45.089,26.032Z" transform="translate(-173.005 -27.98)" fill="#fff"/>
    <path id="Path_19133" data-name="Path 19133" d="M389.091,307.1l-15.35-10.163V259.865l15.35,10.163Z" transform="translate(-67.028 -46.605)" fill="#acc8fe"/>
    <path id="Path_19134" data-name="Path 19134" d="M371.337,294.7l-11-10.252V247.373l11,10.252Z" transform="translate(-64.625 -44.365)" fill="#acc8fe"/>
    <path id="Path_19135" data-name="Path 19135" d="M358.885,282.188l-6.65-10.341V234.772l6.65,10.341Z" transform="translate(-63.171 -42.105)" fill="#acc8fe"/>
    <path id="Path_19136" data-name="Path 19136" d="M351.733,269.568l-2.3-10.43V222.063l2.3,10.43Z" transform="translate(-62.669 -39.826)" fill="#acc8fe"/>
    <path id="Path_19137" data-name="Path 19137" d="M733.534,187.188l-1.81,10.272V160.385l1.81-10.273Z" transform="translate(-131.23 -26.922)" fill="#acc8fe"/>
    <path id="Path_19138" data-name="Path 19138" d="M730.429,199.7,724.5,209.716V172.641l5.924-10.011Z" transform="translate(-129.936 -29.167)" fill="#acc8fe"/>
    <path id="Path_19139" data-name="Path 19139" d="M722.311,211.9l-10.037,9.75V184.579l10.037-9.75Z" transform="translate(-127.742 -31.355)" fill="#acc8fe"/>
    <path id="Path_19140" data-name="Path 19140" d="M709.181,223.785l-14.152,9.488V196.2l14.152-9.489Z" transform="translate(-124.649 -33.485)" fill="#acc8fe"/>
    <path id="Path_19141" data-name="Path 19141" d="M671.258,235.347l-108.772,62.8V261.072l108.772-62.8Z" transform="translate(-100.879 -35.559)" fill="#acc8fe"/>
    <path id="Path_19142" data-name="Path 19142" d="M558.908,311.871,542.534,320V282.925l16.374-8.129Z" transform="translate(-97.3 -49.283)" fill="#acc8fe"/>
    <path id="Path_19143" data-name="Path 19143" d="M538.848,321.777l-16.867,5.766V290.467l16.867-5.766Z" transform="translate(-93.614 -51.06)" fill="#acc8fe"/>
    <path id="Path_19144" data-name="Path 19144" d="M518.187,328.8l-17.361,3.4V295.129l17.361-3.4Z" transform="translate(-89.82 -52.32)" fill="#acc8fe"/>
    <path id="Path_19145" data-name="Path 19145" d="M496.925,332.948l-17.855,1.039V296.912l17.855-1.039Z" transform="translate(-85.918 -53.063)" fill="#acc8fe"/>
    <path id="Path_19146" data-name="Path 19146" d="M475.132,333.912l-18.018-1.384V295.453l18.018,1.384Z" transform="translate(-81.981 -52.988)" fill="#acc8fe"/>
    <path id="Path_19147" data-name="Path 19147" d="M453.212,331.684l-17.855-3.865V290.742l17.855,3.866Z" transform="translate(-78.079 -52.143)" fill="#acc8fe"/>
    <path id="Path_19148" data-name="Path 19148" d="M431.491,326.431l-17.69-6.348V283.008l17.69,6.348Z" transform="translate(-74.213 -50.756)" fill="#acc8fe"/>
    <path id="Path_19149" data-name="Path 19149" d="M409.971,318.154l-17.525-8.829V272.248l17.525,8.83Z" transform="translate(-70.383 -48.826)" fill="#acc8fe"/>
    <path id="Path_19150" data-name="Path 19150" d="M442.348,217.327l15.2.725,16.147-3.764,17.011-7.969,85.735-49.5,2.482-1.767,7.062-5.025,4.258-3.03,5.266-7.529,1.255-1.794-1.255-8.776-9.525-8.183-14.172-5.5-15.2-.725-16.147,3.765-17.011,7.969-85.734,49.5-13.8,9.821-6.52,9.323,1.255,8.777,5.265,4.524,4.258,3.658,7.061,2.739ZM384.732,236.91l-15.35-10.162-11-10.252-6.65-10.341-2.3-10.43,1.888-10.317,5.909-10,9.93-9.688,13.952-9.373,108.771-62.8,16.374-8.129,16.867-5.765,17.361-3.4,17.854-1.04,18.019,1.384,17.854,3.866L611.9,86.8l17.525,8.83,15.366,10.153,11.046,10.226,6.726,10.3,2.407,10.367-1.81,10.273-5.924,10.011-10.037,9.75L633.048,176.2,524.276,239,507.9,247.13,491.036,252.9l-17.36,3.4-17.855,1.039L437.8,255.953l-17.855-3.866-17.69-6.347Z" transform="translate(-62.669 -13.488)" fill="#fff"/>
    <path id="Path_19151" data-name="Path 19151" d="M627.521,163.8l-7.111-2.759V123.962l14.173,5.5v29.311Z" transform="translate(-111.267 -22.232)" fill="#acc8fe"/>
    <path id="Path_19152" data-name="Path 19152" d="M617.089,160.879l-15.2-.724V123.079l15.2.725Z" transform="translate(-107.945 -22.074)" fill="#acc8fe"/>
    <path id="Path_19153" data-name="Path 19153" d="M598.359,160.155l-16.147,3.764V126.844l16.147-3.764Z" transform="translate(-104.416 -22.074)" fill="#acc8fe"/>
    <path id="Path_19154" data-name="Path 19154" d="M578.495,164.742l-17.011,7.969V135.635l17.011-7.969Z" transform="translate(-100.699 -22.896)" fill="#acc8fe"/>
    <path id="Path_19155" data-name="Path 19155" d="M542.747,174.453l-85.735,49.5V186.876l85.735-49.5Z" transform="translate(-81.963 -24.638)" fill="#acc8fe"/>
    <path id="Path_19156" data-name="Path 19156" d="M454,234.769l-2.483,1.766-7.061-2.739-4.258-3.658V207.514l13.8-9.821Z" transform="translate(-78.946 -35.455)" fill="#acc8fe"/>
    <path id="Path_19157" data-name="Path 19157" d="M637.68,130.662l9.524,8.183v10.57l-5.266,7.529-4.258,3.03Z" transform="translate(-114.364 -23.434)" fill="#acc8fe"/>
    <path id="Path_19158" data-name="Path 19158" d="M432.249,218.983l6.521-9.323v22.623L433.5,227.76Z" transform="translate(-77.521 -37.601)" fill="#acc8fe"/>
    <path id="Path_19159" data-name="Path 19159" d="M649.286,140.633l1.255,8.776-1.255,1.794Z" transform="translate(-116.446 -25.222)" fill="#acc8fe"/>
    <path id="Path_19160" data-name="Path 19160" d="M200.818,186.756v50.163L182.059,247.75v42.562L136.97,316.345V273.782l-32.108,18.537L40.376,329.551V281.668L114.1,53.271,165.11,23.819l-29.923,93.829-9.431,29.572-18.832,59.052L93.363,248.8l43.607-25.177V153.693l45.088-26.032v69.925Z" transform="translate(-7.241 -4.272)" fill="#acc8fe"/>
    <path id="Path_19161" data-name="Path 19161" d="M151.063,328.409v42.563l-32.108-18.537v-5.488Z" transform="translate(-21.334 -58.898)" fill="#acc8fe"/>
    <path id="Path_19162" data-name="Path 19162" d="M231.781,220l-18.759,10.83V209.166Z" transform="translate(-38.204 -37.513)" fill="#fff"/>
    <path id="Path_19163" data-name="Path 19163" d="M151.513,180.661v69.925l-30.046-17.347L140.3,174.187Z" transform="translate(-21.785 -31.239)" fill="#acc8fe"/>
    <path id="Path_19164" data-name="Path 19164" d="M33.358,333.966V381.85L1.25,363.312V315.428Z" transform="translate(-0.224 -56.57)" fill="#acc8fe"/>
    <path id="Path_19165" data-name="Path 19165" d="M107.08,55.656l-73.721,228.4L1.249,265.515l73.722-228.4Z" transform="translate(-0.224 -6.657)" fill="#acc8fe"/>
    <path id="Path_19166" data-name="Path 19166" d="M148.55,263.491l-43.607,25.177L118.5,246.144Z" transform="translate(-18.821 -44.145)" fill="#fff"/>
    <path id="Path_19167" data-name="Path 19167" d="M174.2,19.767,123.191,49.22,91.082,30.682,142.1,1.23Z" transform="translate(-16.335 -0.221)" fill="#fff"/>
    <path id="Path_19168" data-name="Path 19168" d="M200.717,146.3l-45.088,26.032-11.214-6.474,9.431-29.572,14.764-8.524Z" transform="translate(-25.9 -22.914)" fill="#fff"/>
    <g id="Group_2486" data-name="Group 2486">
      <g id="Group_2485" data-name="Group 2485" clip-path="url(#clip-path-2)">
        <path id="Path_19169" data-name="Path 19169" d="M665.748,136.223h0l-2.407-10.367a.954.954,0,0,0-.072-.158.927.927,0,0,0-.068-.171l-6.726-10.3a1.149,1.149,0,0,0-.088-.089,1.132,1.132,0,0,0-.074-.1l-11.046-10.225c-.022-.02-.05-.026-.073-.044s-.034-.043-.058-.058L629.77,94.556a.5.5,0,0,0-.057-.023c-.017-.011-.028-.028-.047-.038L612.14,85.666c-.019-.01-.04-.008-.06-.017s-.034-.025-.055-.033l-17.69-6.347c-.022-.008-.044,0-.066-.01s-.039-.022-.062-.027l-17.854-3.866c-.025-.006-.047,0-.071,0s-.043-.016-.067-.019l-18.019-1.384c-.023,0-.043.009-.066.008s-.047-.011-.071-.01L540.2,75c-.024,0-.043.015-.068.018s-.046,0-.07,0l-17.36,3.4c-.024,0-.042.021-.065.027a.674.674,0,0,0-.07.009L505.7,84.221c-.022.007-.037.025-.058.034s-.045.007-.066.018L489.2,92.4c-.011,0-.016.014-.026.02s-.021,0-.031.011l-108.771,62.8c-.011.006-.016.016-.026.023s-.023.007-.033.013l-13.952,9.374c-.027.018-.041.047-.066.066s-.055.028-.079.051l-9.93,9.688a1.05,1.05,0,0,0-.077.112,1.139,1.139,0,0,0-.089.1l-5.909,10a1.077,1.077,0,0,0-.059.171.976.976,0,0,0-.066.167L348.2,195.313v0c-.006.032,0,.062,0,.094s-.018.059-.018.091v37.076a1,1,0,0,0,.022.11.841.841,0,0,0,0,.111l2.3,10.431a1.034,1.034,0,0,0,.138.332v0L357.3,253.9a1.047,1.047,0,0,0,.157.186l.007.009,0,0,0,0,10.991,10.244c.023.021.052.029.076.047s.034.043.058.058l15.35,10.163a.709.709,0,0,0,.067.032c.014.007.022.021.037.029l17.525,8.829a.769.769,0,0,0,.083.03c.011,0,.02.015.032.02l17.69,6.348c.025.008.05.006.075.012s.034.02.055.024l17.854,3.865a1.013,1.013,0,0,0,.109.012c.011,0,.019.007.03.008l18.018,1.383c.026,0,.052,0,.078,0h0l.058,0,17.855-1.038c.009,0,.016-.007.025-.007a.844.844,0,0,0,.112-.011l17.361-3.4c.021,0,.035-.018.055-.023s.053,0,.08-.013l16.867-5.766c.011,0,.019-.013.031-.018a.852.852,0,0,0,.093-.034l16.374-8.129c.008,0,.012-.011.02-.015s.025-.009.038-.016l108.771-62.8c.008,0,.012-.014.021-.019s.025-.01.037-.017l14.152-9.489c.026-.017.04-.045.064-.065s.056-.029.08-.051l10.033-9.747a1,1,0,0,0,.172-.217l5.924-10.011v0a1.008,1.008,0,0,0,.127-.343l1.81-10.272a.84.84,0,0,0,0-.091c0-.03.017-.056.017-.087V136.455a.85.85,0,0,0-.023-.112,1.15,1.15,0,0,0,0-.119M656.2,193.174l-9.872,9.589-14.047,9.418L523.567,274.948l-16.284,8.085-16.736,5.721-17.222,3.375L455.6,293.16l-17.876-1.373-17.72-3.836-17.571-6.305-17.412-8.773L369.794,262.79l-10.842-10.106-6.481-10.078-2.235-10.142V204.923l.271,1.229a1.027,1.027,0,0,0,.138.332v0l6.65,10.341a1.078,1.078,0,0,0,.157.186l.007.009,0,0,0,0,10.991,10.245c.023.021.052.028.076.047s.034.042.058.058l15.35,10.162c.021.014.045.019.067.032s.022.021.037.029l17.525,8.829a.77.77,0,0,0,.083.03c.011,0,.02.016.032.02l17.69,6.347c.025.009.05.007.075.013s.034.02.055.024l17.854,3.866a1.046,1.046,0,0,0,.11.012c.011,0,.019.007.029.008l18.018,1.384c.026,0,.052,0,.078,0h0c.019,0,.039,0,.058,0l17.855-1.039c.009,0,.016-.006.025-.007a1,1,0,0,0,.112-.011l17.361-3.4c.021,0,.035-.018.055-.023s.053,0,.08-.013l16.867-5.766c.011,0,.019-.014.031-.018.03-.012.062-.019.093-.034l16.374-8.129c.008,0,.012-.011.02-.015s.025-.008.038-.016l108.771-62.8c.008,0,.012-.013.021-.019s.025-.009.037-.017l14.152-9.489c.026-.018.04-.045.064-.065s.056-.029.08-.052l10.033-9.745a1.022,1.022,0,0,0,.172-.217l5.826-9.845v26.022l-1.763,10ZM357.82,175.821l9.765-9.527,13.847-9.3L490.145,94.225,506.43,86.14l16.736-5.721,17.222-3.375,17.72-1.032,17.876,1.373,17.72,3.837,17.569,6.3L628.687,96.3l15.247,10.074,10.893,10.083,6.558,10.038,2.318,9.986-1.741,9.883L656.2,156.1l-9.872,9.589-14.047,9.418L523.567,237.873l-16.284,8.084-16.736,5.722-17.222,3.375-17.72,1.031-17.876-1.372-17.72-3.837-17.571-6.305L385.025,235.8l-15.231-10.083-10.842-10.106-6.481-10.078-2.214-10.049,1.817-9.933Z" transform="translate(-62.445 -13.264)" fill="#175da3" stroke="rgba(0,0,0,0)" stroke-width="1"/>
        <path id="Path_19170" data-name="Path 19170" d="M431.033,202.995a1,1,0,0,0-.013.237.947.947,0,0,0-.008.144l1.255,8.776a1.012,1.012,0,0,0,.061.182.958.958,0,0,0,.05.149,1.039,1.039,0,0,0,.236.3h0l5.265,4.524,4.258,3.658a.963.963,0,0,0,.222.13c.028.014.047.037.076.049l7.061,2.739,7.112,2.758a.979.979,0,0,0,.2.039.8.8,0,0,0,.118.029l15.2.726h.045l0,0a1.039,1.039,0,0,0,.233-.028l16.132-3.76.006,0,.01,0,.01,0a.955.955,0,0,0,.193-.066l17.011-7.969c.01,0,.016-.014.025-.019a.313.313,0,0,0,.052-.021l85.735-49.5c.012-.007.02-.02.032-.028s.034-.013.05-.025l2.459-1.751,0,0,.018-.013h0l7.063-5.025,4.258-3.029c.009-.007.012-.016.021-.022a1.036,1.036,0,0,0,.226-.227l5.265-7.529,1.255-1.794a.986.986,0,0,0,.061-.138,1.034,1.034,0,0,0,.092-.213,1.007,1.007,0,0,0,.014-.238.949.949,0,0,0,.008-.144l-1.255-8.776a1.042,1.042,0,0,0-.048-.134.99.99,0,0,0-.077-.213.97.97,0,0,0-.121-.156.912.912,0,0,0-.1-.13l-9.524-8.183a1.029,1.029,0,0,0-.152-.086,1.063,1.063,0,0,0-.145-.092l-14.172-5.5a1.025,1.025,0,0,0-.164-.028.952.952,0,0,0-.158-.04l-15.2-.724a.92.92,0,0,0-.15.021.885.885,0,0,0-.132,0l-16.147,3.764c-.036.01-.063.034-.1.046a.663.663,0,0,0-.1.025l-17.011,7.969c-.014.007-.022.018-.036.025s-.029.007-.042.014l-85.735,49.5c-.015.008-.023.023-.037.032s-.031.011-.045.02l-13.8,9.822a1,1,0,0,0-.121.129,1.072,1.072,0,0,0-.125.119l-6.521,9.323a1.021,1.021,0,0,0-.06.138,1.045,1.045,0,0,0-.093.213m8.253-8.353,13.618-9.689L538.559,135.5l16.873-7.9,15.9-3.708,14.892.71,13.853,5.374,9.1,7.816,1.143,7.994-1.023,1.462-5.164,7.383-4.114,2.927-6.611,4.7-6.595-2.558a1.046,1.046,0,0,0-.166-.029,1,1,0,0,0-.157-.039l-15.2-.724a.861.861,0,0,0-.145.021.852.852,0,0,0-.137,0L554.862,162.7a.8.8,0,0,0-.1.044.9.9,0,0,0-.1.026l-17.011,7.969c-.014.007-.022.019-.036.026s-.029.007-.042.014l-85.735,49.5c-.015.009-.023.025-.037.033s-.031.01-.045.02l-2.032,1.447L443.34,219.3l-4.125-3.544-4.973-4.273-1.143-7.992Zm151.233-30.326-85.658,49.455-16.873,7.9-15.9,3.709-14.891-.711-5.181-2.01.891-.634,85.655-49.453,16.873-7.9,15.9-3.709,14.892.711,5.182,2.01Z" transform="translate(-77.299 -21.85)" fill="#175da3" stroke="rgba(0,0,0,0)" stroke-width="1"/>
        <path id="Path_19171" data-name="Path 19171" d="M194.573,182.291a.98.98,0,0,0-.036-.136,1.109,1.109,0,0,0-.052-.125c-.009-.019-.009-.039-.02-.058s-.029-.029-.041-.047a.9.9,0,0,0-.081-.105.971.971,0,0,0-.1-.1,1,1,0,0,0-.107-.082c-.018-.011-.028-.03-.046-.041l-18.246-10.534V123.39c0-.021-.011-.039-.012-.061a.9.9,0,0,0-.018-.132.959.959,0,0,0-.036-.137,1.109,1.109,0,0,0-.052-.125c-.009-.019-.009-.039-.02-.058s-.029-.029-.041-.046a.909.909,0,0,0-.081-.106.967.967,0,0,0-.1-.1,1.115,1.115,0,0,0-.107-.082c-.017-.011-.028-.03-.046-.04l-32.108-18.538a1.1,1.1,0,0,0-.121-.041,1.008,1.008,0,0,0-.2-.066,1.351,1.351,0,0,0-.387,0,1,1,0,0,0-.2.066,1.056,1.056,0,0,0-.121.041l-12.468,7.2,29.118-91.3c0-.007,0-.016,0-.024a.906.906,0,0,0,.016-.094.953.953,0,0,0,.015-.181.88.88,0,0,0,.007-.122.787.787,0,0,0-.021-.084.956.956,0,0,0-.053-.171,1.109,1.109,0,0,0-.047-.126c0-.007,0-.016-.007-.022s-.03-.029-.041-.047a1.08,1.08,0,0,0-.108-.13,1.018,1.018,0,0,0-.1-.106.926.926,0,0,0-.079-.052c-.018-.012-.029-.031-.048-.042L126.273.121a.915.915,0,0,0-.121-.04,1.011,1.011,0,0,0-.2-.067,1.429,1.429,0,0,0-.387,0,1.037,1.037,0,0,0-.2.067.892.892,0,0,0-.12.04L74.235,29.573c-.019.011-.029.03-.047.041a.962.962,0,0,0-.13.109.529.529,0,0,0-.158.179c-.011.018-.03.028-.041.047s-.02.07-.035.1a1.048,1.048,0,0,0-.053.094L.05,258.543a.936.936,0,0,0-.018.158,1.011,1.011,0,0,0-.032.158v47.884a.908.908,0,0,0,.025.125.968.968,0,0,0,.042.205.954.954,0,0,0,.085.175,1,1,0,0,0,.108.16.967.967,0,0,0,.157.139,1.061,1.061,0,0,0,.1.085l32.108,18.537,0,0c.024.013.05.02.075.031s.053.022.08.033l.014,0a1.013,1.013,0,0,0,.338.066h0a1.018,1.018,0,0,0,.339-.066l.014,0c.028-.011.054-.021.08-.033s.051-.018.075-.031l0,0L96.6,289.825v3.71a1.046,1.046,0,0,0,.025.125.968.968,0,0,0,.042.205.953.953,0,0,0,.085.175.787.787,0,0,0,.265.3.876.876,0,0,0,.1.085l32.108,18.538,0,0c.023.013.049.02.074.031s.053.022.08.033l.014.006a1.044,1.044,0,0,0,.339.066h0a1.044,1.044,0,0,0,.339-.066l.014-.006c.028-.011.053-.021.08-.033s.051-.018.074-.031l0,0,45.088-26.032a.952.952,0,0,0,.1-.085.787.787,0,0,0,.265-.3.781.781,0,0,0,.126-.38.908.908,0,0,0,.025-.125V244.07l18.246-10.535a.83.83,0,0,0,.094-.084.95.95,0,0,0,.158-.14,1.026,1.026,0,0,0,.108-.159,1.053,1.053,0,0,0,.085-.176,1.021,1.021,0,0,0,.041-.205.908.908,0,0,0,.025-.125V182.484c0-.021-.011-.039-.012-.061a.922.922,0,0,0-.018-.133M174.3,242.59a1.034,1.034,0,0,0-.1.084,1.072,1.072,0,0,0-.158.14,1.047,1.047,0,0,0-.107.16,1.016,1.016,0,0,0-.085.175.975.975,0,0,0-.041.206.909.909,0,0,0-.025.125v41.97L130.755,310.3V269.511c0-.022-.011-.04-.012-.061a1,1,0,0,0-.04-.2.96.96,0,0,0-.066-.194.487.487,0,0,0-.02-.058.776.776,0,0,0-.084-.1.951.951,0,0,0-.139-.158,1.411,1.411,0,0,0-.335-.193.953.953,0,0,0-.2-.042,1.1,1.1,0,0,0-.126-.025c-.021,0-.039.011-.061.012a1,1,0,0,0-.2.039,1.024,1.024,0,0,0-.195.066c-.019.01-.039.009-.058.02L97.108,287.159,34.16,323.5V277.557L107.711,49.691l48.375-27.93-29.118,91.3-9.431,29.572L98.706,201.688,85.145,244.212c0,.008,0,.016,0,.025a.76.76,0,0,0,.008.554,1.043,1.043,0,0,0,.075.224c0,.007,0,.015.007.022a1.027,1.027,0,0,0,.2.245c.019.017.04.03.06.045a1.036,1.036,0,0,0,.272.152c.015.006.025.017.04.022s.016,0,.024,0a1.02,1.02,0,0,0,.272.042l.016,0,.012,0a1,1,0,0,0,.279-.044c.033-.01.062-.025.094-.039a1.227,1.227,0,0,0,.127-.053l43.6-25.173.007,0s.006-.006.01-.008a1.026,1.026,0,0,0,.2-.153s.007-.01.011-.015.031-.041.048-.061.039-.048.057-.075a.74.74,0,0,0,.049-.064.542.542,0,0,0,.02-.058,1.033,1.033,0,0,0,.088-.261.922.922,0,0,0,.018-.133c0-.021.012-.039.012-.061V150.014l43.037-24.848v68.148c0,.022.011.039.012.061a1.007,1.007,0,0,0,.04.2.961.961,0,0,0,.066.194c.009.019.008.04.019.058a1.039,1.039,0,0,0,.154.2.175.175,0,0,1,.011.014,1.008,1.008,0,0,0,.288.195.777.777,0,0,0,.082.033,1.016,1.016,0,0,0,.351.071h0a1.034,1.034,0,0,0,.351-.071c.03-.011.057-.022.085-.035s.051-.017.076-.031l17.221-9.942v47.794Zm-45.6,28.7V310.3L98.647,292.943v-4.3ZM2.052,259.019,75.334,31.985l30.291,17.488L32.158,277.081a.936.936,0,0,0-.018.158,1.011,1.011,0,0,0-.032.158V323.5L2.052,306.149ZM125.761,2.194l30.057,17.354L106.856,47.815,76.8,30.462ZM142.71,106.037l30.057,17.353-43.037,24.848-9.986-5.765,9.059-28.407Zm33.134,67.393,15.682,9.054-15.682,9.053Zm-56.738-28.958,9.6,5.542V217.57l-27.792-16.045Zm-18.832,59.053,27.4,15.821L87.9,242.31Z" fill="#175da3" stroke="rgba(0,0,0,0)" stroke-width="1"/>
        <path id="Path_19172" data-name="Path 19172" d="M1040.276,285.15a1.026,1.026,0,0,0,.025-.124V234.862c0-.021-.011-.039-.011-.06a1.2,1.2,0,0,0-.018-.134.964.964,0,0,0-.037-.136,1,1,0,0,0-.05-.123c-.01-.02-.009-.041-.021-.06s-.03-.029-.042-.047a.977.977,0,0,0-.08-.105.967.967,0,0,0-.1-.1.908.908,0,0,0-.106-.081c-.018-.012-.028-.03-.047-.041l-18.246-10.536V154.106c0-.021-.011-.039-.012-.06a1.026,1.026,0,0,0-.017-.134,1.105,1.105,0,0,0-.037-.137.948.948,0,0,0-.051-.123c-.009-.019-.009-.04-.02-.059s-.03-.03-.042-.048a.879.879,0,0,0-.081-.1.839.839,0,0,0-.1-.1.9.9,0,0,0-.106-.082c-.017-.012-.028-.03-.046-.041L975.94,127.186a.943.943,0,0,0-.121-.04.975.975,0,0,0-.2-.067,1.34,1.34,0,0,0-.386,0,.98.98,0,0,0-.2.067.91.91,0,0,0-.118.04l-26.686,15.406,56.254-111.438a.85.85,0,0,0,.027-.1,1,1,0,0,0,.053-.169c.006-.033.017-.063.021-.1a.893.893,0,0,0-.005-.125,1.02,1.02,0,0,0-.016-.166.483.483,0,0,0-.074-.221,1.026,1.026,0,0,0-.033-.1c-.011-.019-.03-.029-.042-.047s-.03-.053-.05-.078a1.049,1.049,0,0,0-.1-.1.968.968,0,0,0-.134-.113c-.018-.011-.028-.03-.047-.041L953.066.352a.99.99,0,0,0-.12-.041,1.009,1.009,0,0,0-.2-.067,1.417,1.417,0,0,0-.385,0,1.033,1.033,0,0,0-.2.067,1.085,1.085,0,0,0-.12.041L919.932,18.889c-.018.011-.028.03-.046.041s-.052.029-.075.048a.966.966,0,0,0-.1.1,1.007,1.007,0,0,0-.116.135c-.011.018-.03.029-.042.048s0,.017-.008.025-.011.011-.015.018l-73.722,143.27c-.006.011,0,.025-.01.036a.991.991,0,0,0-.056.2,1.016,1.016,0,0,0-.041.2c0,.013-.007.024-.007.037v47.884a.873.873,0,0,0,.025.124.984.984,0,0,0,.042.207,1.383,1.383,0,0,0,.193.334,1,1,0,0,0,.158.14,1.025,1.025,0,0,0,.094.084l96.083,55.472v41.972a.9.9,0,0,0,.025.124.984.984,0,0,0,.042.207.966.966,0,0,0,.084.174.786.786,0,0,0,.265.3.881.881,0,0,0,.1.085l45.088,26.032.005,0c.023.013.049.02.074.031s.052.022.08.033l.025.01a1.047,1.047,0,0,0,.328.062h0a1.046,1.046,0,0,0,.328-.062l.024-.01c.028-.011.054-.021.081-.033s.05-.018.074-.031l0,0,32.108-18.538a1.06,1.06,0,0,0,.1-.085.788.788,0,0,0,.265-.3,1.031,1.031,0,0,0,.085-.174.982.982,0,0,0,.041-.207.905.905,0,0,0,.026-.124v-20.31l18.246-10.534a1.065,1.065,0,0,0,.1-.085.958.958,0,0,0,.156-.138.993.993,0,0,0,.108-.161.906.906,0,0,0,.085-.175.958.958,0,0,0,.042-.206m-20.786,31.016-30.057,17.353v-39.01l17.22,9.943h0c.025.014.051.021.076.033s.053.022.081.033.039.018.059.024a1.032,1.032,0,0,0,.293.048h0a1.025,1.025,0,0,0,.33-.062l.023-.009c.028-.011.054-.021.08-.033s.051-.018.074-.031l0,0,11.811-6.819Zm-75.17-49.59a.976.976,0,0,0-.042-.206.913.913,0,0,0-.085-.175.951.951,0,0,0-.108-.16.987.987,0,0,0-.158-.139,1.146,1.146,0,0,0-.094-.084l-96.083-55.473V163.3L920.864,21.2l49.241,28.429L898.8,190.9c-.016.033-.015.067-.028.1a.994.994,0,0,0-.052.169.973.973,0,0,0-.02.1.9.9,0,0,0,0,.125,1.443,1.443,0,0,0,.033.263,1.01,1.01,0,0,0,.057.124.845.845,0,0,0,.033.1.781.781,0,0,0,.05.065c.014.021.026.04.042.06s.027.031.041.048a1.022,1.022,0,0,0,.232.194s.007.007.011.01l43.608,25.177c.024.014.05.019.075.031s.057.024.086.035a1.035,1.035,0,0,0,.351.071h0a1.025,1.025,0,0,0,.351-.071.709.709,0,0,0,.082-.033,1.015,1.015,0,0,0,.288-.195s.007-.01.011-.014a1.085,1.085,0,0,0,.155-.2c.011-.019.01-.04.02-.059a1.666,1.666,0,0,0,.1-.393c0-.021.012-.039.012-.061V148.389l43.037,24.847V242.57c0,.021.011.039.012.06a1.047,1.047,0,0,0,.017.134,1.1,1.1,0,0,0,.037.137,1.013,1.013,0,0,0,.05.122c.01.02.01.041.021.06s.034.042.05.065.037.049.057.074.03.043.048.062.007.01.011.014a1.043,1.043,0,0,0,.2.152l.011.009,18.246,10.535v47.8l-17.22-9.943c-.018-.011-.039-.01-.057-.019a1.579,1.579,0,0,0-.4-.107c-.021,0-.038-.012-.059-.012a1.033,1.033,0,0,0-.121.025,1.044,1.044,0,0,0-.212.043,1.41,1.41,0,0,0-.332.193,106.141,106.141,0,0,0-.222.253c-.011.019-.01.039-.02.057a1.006,1.006,0,0,0-.066.2.986.986,0,0,0-.04.2c0,.021-.012.039-.012.061v40.787l-43.037-24.847V266.7a.91.91,0,0,0-.025-.125M952.553,2.425l48.962,28.267L971.458,48.046,922.5,19.778Zm22.874,126.835,43.037,24.847L988.407,171.46,945.37,146.612l.905-.523.017-.01h0Zm31.739,122.956-16.707-9.646,30.057-17.354,16.708,9.647Zm12.324-28.777-30.057,17.354V173.236l30.057-17.353ZM901.763,191.361l30.057-17.354,10.474,6.047v34.707Zm40.531-13.675-9.121-5.265,9.121-18.068Zm.513-31.961c-.019.011-.03.029-.047.041a.906.906,0,0,0-.106.081.915.915,0,0,0-.1.1.894.894,0,0,0-.08.1c-.012.018-.031.029-.042.048s-.011.04-.021.06a1,1,0,0,0-.05.123.969.969,0,0,0-.037.135,1.082,1.082,0,0,0-.018.135c0,.021-.011.039-.011.06V149.8l-11.253,22.29-28.863,16.665L972.236,49.965,1001.1,33.3,944.984,144.466ZM1020,294.968l-11.811,6.819V253.992l30.057-17.354v47.794Z" transform="translate(-151.671 -0.041)" fill="#175da3" stroke="rgba(0,0,0,0)" stroke-width="1"/>
      </g>
    </g>
  </g>
</svg>
