<svg xmlns="http://www.w3.org/2000/svg" width="19.564" height="22.505" viewBox="0 0 19.564 22.505">
  <path id="fikirmod-d" d="M44.436,21.877l.428-1.894a7.482,7.482,0,0,1-2.775,1.136,7.209,7.209,0,0,1-2.92-.063,8.119,8.119,0,0,1-6.26-9.966A8.547,8.547,0,0,1,34.18,8.126,8.032,8.032,0,0,1,36.4,5.937a7.647,7.647,0,0,1,2.939-1.225,8.277,8.277,0,0,1,3.3.126A7.394,7.394,0,0,1,47.5,8.309L49.451,0,52.23.627,47.215,22.5ZM35.791,11.706a5.525,5.525,0,0,0,.664,4.273,5.234,5.234,0,0,0,3.438,2.44,5.052,5.052,0,0,0,3.967-.783,5.273,5.273,0,0,0,2.408-3.36,5.566,5.566,0,0,0-.674-4.231,5.043,5.043,0,0,0-3.317-2.457,5.4,5.4,0,0,0-6.487,4.117Z" transform="translate(-32.666)" fill="#231f20"/>
</svg>
