<svg id="Group_2456" data-name="Group 2456" xmlns="http://www.w3.org/2000/svg" xmlns:xlink="http://www.w3.org/1999/xlink" width="888.54" height="317.245" viewBox="0 0 888.54 317.245">
  <defs>
    <clipPath id="clip-path">
      <rect id="Rectangle_1616" data-name="Rectangle 1616" width="888.54" height="317.245" fill="none"/>
    </clipPath>
  </defs>
  <g id="Group_2455" data-name="Group 2455" clip-path="url(#clip-path)">
    <path id="Path_19090" data-name="Path 19090" d="M93.8,24.3h36.692V38.2c7.144-8.69,16.027-16.222,31.67-16.222,24.717,0,46.346,20.663,46.346,54.07v.386c0,33.987-21.436,54.652-46.153,54.652-15.836,0-24.912-7.146-31.863-15.063v43.643H93.8Zm78.789,52.333v-.387c0-13.9-9.849-23.751-21.434-23.751-11.973,0-21.436,9.849-21.436,23.751v.387c0,13.9,9.463,23.751,21.436,23.751,11.586,0,21.434-9.656,21.434-23.751" transform="translate(52.071 12.201)" fill="#040504"/>
    <path id="Path_19091" data-name="Path 19091" d="M177.74,24.105h36.69V45.154c5.987-14.1,15.449-23.559,33.023-22.787V60.99h-3.09c-19.312,0-29.933,10.813-29.933,34.952v32.636H177.74Z" transform="translate(98.668 12.392)" fill="#040504"/>
    <path id="Path_19092" data-name="Path 19092" d="M224.552,98.561v-.386c0-21.822,16.413-32.829,40.939-32.829,9.849,0,19.117,1.739,25.1,4.054V67.663c0-11.007-6.759-17.187-20.856-17.187-11.007,0-19.5,2.124-28.967,5.793l-7.53-25.683c11.779-4.827,24.332-8.11,42.29-8.11,18.731,0,31.477,4.441,39.78,12.744,7.917,7.726,11.2,18.539,11.2,33.216v60.056H290.4V117.485c-7.53,7.919-16.993,13.326-30.9,13.326-19.89,0-34.951-11.587-34.951-32.25m66.429-7.917V85.816a40.307,40.307,0,0,0-14.483-2.7c-10.814,0-16.8,5.022-16.8,12.939v.386c0,7.146,5.406,11.394,12.939,11.394,10.813,0,18.344-6.566,18.344-17.187" transform="translate(124.655 12.477)" fill="#040504"/>
    <path id="Path_19093" data-name="Path 19093" d="M310.173,104.943V62.266H297.814V32.913h12.359V6.457h36.5V32.913H371V62.266H346.67V97.8c0,7.531,3.283,10.429,10.042,10.429a32.159,32.159,0,0,0,13.9-3.477v28.58a52.847,52.847,0,0,1-25.49,6.18c-22.209,0-34.953-9.654-34.953-34.566" transform="translate(165.325 3.584)" fill="#040504"/>
    <path id="Path_19094" data-name="Path 19094" d="M355.181,0h38.043V27.036H355.181Zm.771,36.5h36.5V140.969h-36.5Z" transform="translate(197.171)" fill="#040504"/>
    <path id="Path_19095" data-name="Path 19095" d="M392.431,0h36.69V71.45L457.509,36.5h41.519l-36.3,41.712,37.27,62.76H459.44l-20.856-35.724-9.463,11.007v24.717h-36.69Z" transform="translate(217.85)" fill="#040504"/>
    <path id="Path_19096" data-name="Path 19096" d="M.669,226.611,14.381,204.6c12.166,7.919,24.91,11.973,35.724,11.973,6.373,0,9.463-1.931,9.463-5.6v-.387c0-4.441-5.987-5.986-16.994-9.076C21.912,196.292,5.5,189.148,5.5,168.292V167.9c0-22.206,17.96-34.566,41.906-34.566A81.706,81.706,0,0,1,90.465,145.5L77.912,168.679c-10.813-6.18-22.593-9.849-30.9-9.849-5.6,0-8.5,2.123-8.5,5.213v.387c0,4.054,6.179,5.986,16.993,9.269,20.663,5.6,37.079,12.939,37.079,33.214v.387c0,22.979-17.189,34.953-42.679,34.953C32.146,242.254,15.152,237.232.669,226.611Z" transform="translate(0.371 74.02)" fill="none" stroke="#d60812" stroke-width="1"/>
    <path id="Path_19097" data-name="Path 19097" d="M76.853,216.179V173.5H64.494V144.149H76.853V117.693h36.5v26.456h24.332V173.5H113.35v35.532c0,7.531,3.283,10.429,10.041,10.429a32.158,32.158,0,0,0,13.9-3.477v28.58a52.847,52.847,0,0,1-25.49,6.18C89.6,250.745,76.853,241.091,76.853,216.179Z" transform="translate(35.802 65.335)" fill="none" stroke="#d60812" stroke-width="1"/>
    <path id="Path_19098" data-name="Path 19098" d="M117.265,188.251v-.386c0-29.933,24.333-54.65,57.74-54.65s57.548,24.524,57.548,54.263v.387c0,29.932-24.526,54.65-57.933,54.65C141.4,242.516,117.265,218.184,117.265,188.251Zm79.755,0v-.386c0-12.939-9.269-23.753-22.4-23.753-13.324,0-21.822,10.429-21.822,23.366v.387c0,12.744,9.269,23.559,22.207,23.559C188.33,211.424,197.02,200.8,197.02,188.251Z" transform="translate(65.097 73.951)" fill="none" stroke="#d60812" stroke-width="1"/>
    <path id="Path_19099" data-name="Path 19099" d="M201.329,111.236h36.69v71.45l28.387-34.953h41.519l-36.3,41.712,37.27,62.76H268.337l-20.856-35.724-9.463,11.007v24.717h-36.69Z" transform="translate(111.763 61.75)" fill="none" stroke="#d60812" stroke-width="1"/>
    <rect id="Rectangle_1615" data-name="Rectangle 1615" width="36.497" height="140.969" transform="translate(430.497 172.986)" fill="none" stroke="#d60812" stroke-width="1"/>
    <path id="Path_19100" data-name="Path 19100" d="M310.349,209.8v-.386c0-21.822,16.413-32.829,40.939-32.829,9.849,0,19.117,1.739,25.1,4.054V178.9c0-11.007-6.759-17.187-20.856-17.187-11.007,0-19.5,2.124-28.967,5.793l-7.53-25.683c11.779-4.827,24.332-8.11,42.29-8.11,18.731,0,31.477,4.441,39.78,12.744,7.917,7.726,11.2,18.539,11.2,33.216v60.056H376.2V228.721c-7.53,7.919-16.993,13.326-30.9,13.326C325.41,242.047,310.349,230.46,310.349,209.8Zm66.429-7.917v-4.827a40.306,40.306,0,0,0-14.483-2.7c-10.814,0-16.8,5.022-16.8,12.939v.386c0,7.146,5.406,11.394,12.939,11.394C369.246,219.067,376.778,212.5,376.778,201.879Z" transform="translate(172.283 74.227)" fill="none" stroke="#d60812" stroke-width="1"/>
    <path id="Path_19101" data-name="Path 19101" d="M387.956,135.532h36.69v14.29c6.759-8.69,16.414-16.607,31.092-16.607,13.9,0,24.524,6.179,30.124,16.994,9.076-10.622,19.5-16.994,34.953-16.994,22.4,0,35.726,13.71,35.726,38.236V240H519.849V183.229c0-11.586-5.6-17.571-14.29-17.571S490.5,171.644,490.5,183.229V240H454V183.229c0-11.586-5.793-17.571-14.483-17.571s-14.87,5.986-14.87,17.571V240h-36.69Z" transform="translate(215.365 73.951)" fill="none" stroke="#d60812" stroke-width="1"/>
    <path id="Path_19102" data-name="Path 19102" d="M505.3,209.8v-.386c0-21.822,16.413-32.829,40.939-32.829,9.849,0,19.117,1.739,25.1,4.054V178.9c0-11.007-6.759-17.187-20.856-17.187-11.007,0-19.5,2.124-28.967,5.793l-7.53-25.683c11.778-4.827,24.331-8.11,42.29-8.11,18.732,0,31.477,4.441,39.78,12.744,7.917,7.726,11.2,18.539,11.2,33.216v60.056H571.146V228.721c-7.53,7.919-16.993,13.326-30.9,13.326C520.358,242.047,505.3,230.46,505.3,209.8Zm66.429-7.917v-4.827a40.306,40.306,0,0,0-14.483-2.7c-10.814,0-16.8,5.022-16.8,12.939v.386c0,7.146,5.406,11.394,12.939,11.394C564.194,219.067,571.726,212.5,571.726,201.879Z" transform="translate(280.505 74.227)" fill="none" stroke="#d60812" stroke-width="1"/>
  </g>
</svg>
