<svg xmlns="http://www.w3.org/2000/svg" width="84.441" height="35.177" viewBox="0 0 84.441 35.177">
  <g id="Group_2451" data-name="Group 2451" transform="translate(0.239)">
    <g id="Group_2452" data-name="Group 2452">
      <path id="Path_19065" data-name="Path 19065" d="M93.925,22.2h3.488v1.315a6.227,6.227,0,0,1,.546-.584,3.674,3.674,0,0,1,.647-.484,3.416,3.416,0,0,1,.8-.338,3.594,3.594,0,0,1,.993-.128,4.023,4.023,0,0,1,1.667.356,4.211,4.211,0,0,1,1.394,1.013,4.894,4.894,0,0,1,.956,1.607,6.063,6.063,0,0,1,.355,2.137v.037a6.192,6.192,0,0,1-.355,2.164,5.068,5.068,0,0,1-.947,1.625,4.052,4.052,0,0,1-3.051,1.379,3.944,3.944,0,0,1-1.011-.119,3.885,3.885,0,0,1-.811-.31,3.145,3.145,0,0,1-.656-.456,6.289,6.289,0,0,1-.528-.539V35H93.925Zm5.414,7.195a1.889,1.889,0,0,0,1.436-.621,2.281,2.281,0,0,0,.582-1.625v-.036a2.257,2.257,0,0,0-.582-1.607,1.925,1.925,0,0,0-2.854.009,2.227,2.227,0,0,0-.427.7,2.473,2.473,0,0,0-.154.895v.036a2.546,2.546,0,0,0,.154.9,2.2,2.2,0,0,0,.427.712,1.91,1.91,0,0,0,.636.466,1.874,1.874,0,0,0,.782.164" transform="translate(-80.112 -18.745)"/>
      <path id="Path_19066" data-name="Path 19066" d="M177.864,22.488h3.488v1.99a4.071,4.071,0,0,1,1.15-1.607,2.8,2.8,0,0,1,1.972-.548v3.652h-.292a2.694,2.694,0,0,0-2.1.8,3.666,3.666,0,0,0-.73,2.52v3.068h-3.488Z" transform="translate(-151.707 -19.037)"/>
      <path id="Path_19067" data-name="Path 19067" d="M227.876,32.718a4.137,4.137,0,0,1-1.315-.2,3.1,3.1,0,0,1-1.05-.584,2.686,2.686,0,0,1-.7-.95,3.163,3.163,0,0,1-.255-1.315v-.036a3.063,3.063,0,0,1,.283-1.351,2.653,2.653,0,0,1,.785-.968,3.584,3.584,0,0,1,1.214-.584,5.851,5.851,0,0,1,1.589-.2,7.156,7.156,0,0,1,1.324.119,7.5,7.5,0,0,1,1.05.265v-.164a1.488,1.488,0,0,0-.484-1.187,2.229,2.229,0,0,0-1.488-.42,6.4,6.4,0,0,0-1.424.146,9.311,9.311,0,0,0-1.3.4l-.712-2.447a10.866,10.866,0,0,1,1.781-.557,10.3,10.3,0,0,1,2.219-.21,7.133,7.133,0,0,1,2.255.31,3.811,3.811,0,0,1,1.507.895A3.13,3.13,0,0,1,233.966,25a6.022,6.022,0,0,1,.247,1.817V32.5H230.78V31.477a3.688,3.688,0,0,1-2.9,1.242m1.242-2.173a1.758,1.758,0,0,0,1.242-.438,1.536,1.536,0,0,0,.475-1.187v-.457a3.214,3.214,0,0,0-.612-.183,3.682,3.682,0,0,0-.74-.073,1.811,1.811,0,0,0-1.178.338,1.092,1.092,0,0,0-.411.886v.037a.967.967,0,0,0,.347.794,1.34,1.34,0,0,0,.877.283" transform="translate(-191.53 -19.169)"/>
      <path id="Path_19068" data-name="Path 19068" d="M302.324,19.038a3.683,3.683,0,0,1-2.46-.749,3.149,3.149,0,0,1-.881-2.52V11.752h-1.169V8.958h1.169v-2.5h3.488v2.5h2.3v2.794h-2.3v3.342a1.019,1.019,0,0,0,.237.758.991.991,0,0,0,.712.228,2.507,2.507,0,0,0,.676-.091,4,4,0,0,0,.639-.238v2.721a4.77,4.77,0,0,1-1.077.411,5.359,5.359,0,0,1-1.334.155" transform="translate(-254.017 -5.507)"/>
      <path id="Path_19069" data-name="Path 19069" d="M355.181,0h3.634V2.557h-3.634Zm.073,3.451h3.488V13.33h-3.488Z" transform="translate(-302.947)"/>
      <path id="Path_19070" data-name="Path 19070" d="M392.43,0h3.488V6.756L398.6,3.451h3.926L399.1,7.414l3.524,5.917H398.8l-1.991-3.36-.895,1.041V13.33H392.43Z" transform="translate(-334.719 0)"/>
      <path id="Union_67" data-name="Union 67" d="M20517.408,23408.164a5.266,5.266,0,0,1-1.727-1.105,4.962,4.962,0,0,1-1.135-1.633,5.04,5.04,0,0,1-.4-1.992v-.035a4.918,4.918,0,0,1,.41-2,5.047,5.047,0,0,1,1.141-1.645,5.449,5.449,0,0,1,1.732-1.115,5.8,5.8,0,0,1,2.191-.406,5.722,5.722,0,0,1,2.186.406,5.577,5.577,0,0,1,1.727,1.109,4.859,4.859,0,0,1,1.129,1.621,4.963,4.963,0,0,1,.4,1.992v.035a5,5,0,0,1-.41,2,5.145,5.145,0,0,1-1.141,1.645,5.547,5.547,0,0,1-1.738,1.117,5.812,5.812,0,0,1-2.191.41A5.728,5.728,0,0,1,20517.408,23408.164Zm1.322-6.8a1.988,1.988,0,0,0-.646.471,2.177,2.177,0,0,0-.412.7,2.382,2.382,0,0,0-.146.834v.035a2.4,2.4,0,0,0,.152.852,2.147,2.147,0,0,0,1.105,1.176,1.914,1.914,0,0,0,.84.182,2.112,2.112,0,0,0,.857-.17,1.861,1.861,0,0,0,.652-.471,2.228,2.228,0,0,0,.412-.7,2.489,2.489,0,0,0,.146-.834v-.035a2.313,2.313,0,0,0-.158-.852,2.107,2.107,0,0,0-.436-.693,2.232,2.232,0,0,0-.67-.482,1.9,1.9,0,0,0-.84-.182A2.133,2.133,0,0,0,20518.73,23401.359Zm54.471,6.986a3,3,0,0,1-1.051-.582,2.708,2.708,0,0,1-.7-.951,3.139,3.139,0,0,1-.26-1.311v-.041a3.069,3.069,0,0,1,.283-1.352,2.671,2.671,0,0,1,.787-.963,3.521,3.521,0,0,1,1.215-.588,5.827,5.827,0,0,1,1.586-.2,7.451,7.451,0,0,1,1.328.117,8.435,8.435,0,0,1,1.047.264v-.164a1.492,1.492,0,0,0-.482-1.187,2.246,2.246,0,0,0-1.486-.416,6.328,6.328,0,0,0-1.428.146,8.456,8.456,0,0,0-1.293.4l-.717-2.445a10.334,10.334,0,0,1,1.781-.557,10.148,10.148,0,0,1,2.221-.213,7.144,7.144,0,0,1,2.256.313,3.8,3.8,0,0,1,1.5.893,3.081,3.081,0,0,1,.816,1.322,6.072,6.072,0,0,1,.246,1.82v5.676h-3.436v-1.023a3.843,3.843,0,0,1-1.211.906,3.921,3.921,0,0,1-1.691.34A4.107,4.107,0,0,1,20573.2,23408.346Zm1.744-3.967a1.08,1.08,0,0,0-.41.883v.035a.992.992,0,0,0,.346.8,1.344,1.344,0,0,0,.875.281,1.766,1.766,0,0,0,1.246-.439,1.543,1.543,0,0,0,.471-1.187v-.453a3.077,3.077,0,0,0-.611-.187,3.778,3.778,0,0,0-.74-.07A1.8,1.8,0,0,0,20574.945,23404.379Zm-30.412,3.967a2.957,2.957,0,0,1-1.053-.582,2.661,2.661,0,0,1-.7-.951,3.078,3.078,0,0,1-.258-1.311v-.041a3.1,3.1,0,0,1,.281-1.352,2.632,2.632,0,0,1,.787-.963,3.553,3.553,0,0,1,1.211-.588,5.861,5.861,0,0,1,1.592-.2,7.352,7.352,0,0,1,1.322.117,8.516,8.516,0,0,1,1.051.264v-.164a1.476,1.476,0,0,0-.486-1.187,2.243,2.243,0,0,0-1.486-.416,6.227,6.227,0,0,0-1.422.146,8.589,8.589,0,0,0-1.3.4l-.711-2.445a10,10,0,0,1,1.779-.557,10.148,10.148,0,0,1,2.221-.213,7.136,7.136,0,0,1,2.256.313,3.785,3.785,0,0,1,1.5.893,3.107,3.107,0,0,1,.811,1.322,6.007,6.007,0,0,1,.248,1.82v5.676h-3.432v-1.023a3.794,3.794,0,0,1-1.215.906,3.9,3.9,0,0,1-1.687.34A4.1,4.1,0,0,1,20544.533,23408.346Zm1.744-3.967a1.076,1.076,0,0,0-.412.883v.035a.987.987,0,0,0,.348.8,1.337,1.337,0,0,0,.875.281,1.744,1.744,0,0,0,1.24-.439,1.532,1.532,0,0,0,.475-1.187v-.453a3.248,3.248,0,0,0-.611-.187,3.764,3.764,0,0,0-.74-.07A1.775,1.775,0,0,0,20546.277,23404.379Zm-47.051,3.814a7.4,7.4,0,0,1-2.227-1.105l1.3-2.1a6.973,6.973,0,0,0,1.746.846,5.4,5.4,0,0,0,1.65.283c.582,0,.875-.176.875-.529v-.035c0-.193-.135-.346-.4-.459s-.664-.234-1.187-.381a11.388,11.388,0,0,1-1.369-.43,4.484,4.484,0,0,1-1.115-.6,2.639,2.639,0,0,1-.752-.865,2.708,2.708,0,0,1-.271-1.262v-.035a3.131,3.131,0,0,1,.3-1.4,2.928,2.928,0,0,1,.834-1.023,3.933,3.933,0,0,1,1.246-.627,5.347,5.347,0,0,1,1.58-.219,7.81,7.81,0,0,1,2.156.3,7.176,7.176,0,0,1,1.92.846l-1.191,2.191a8.9,8.9,0,0,0-1.547-.664,4.7,4.7,0,0,0-1.373-.246,1.089,1.089,0,0,0-.6.135.409.409,0,0,0-.205.34v.035c0,.193.141.354.41.465a12.644,12.644,0,0,0,1.2.41c.486.137.945.283,1.369.447a4.618,4.618,0,0,1,1.115.605,2.483,2.483,0,0,1,1.021,2.092v.035a3.318,3.318,0,0,1-.293,1.434,2.887,2.887,0,0,1-.822,1.033,3.562,3.562,0,0,1-1.275.629,6.094,6.094,0,0,1-1.645.211A8.6,8.6,0,0,1,20499.227,23408.193Zm9.211-.412a3.15,3.15,0,0,1-.881-2.52v-4.02h-1.17v-2.795h1.17v-2.5h3.484v2.5h2.3v2.795h-2.3v3.344a1.021,1.021,0,0,0,.24.758.984.984,0,0,0,.711.229,2.393,2.393,0,0,0,.676-.094,4.271,4.271,0,0,0,.641-.234v2.719a4.8,4.8,0,0,1-1.082.412,5.238,5.238,0,0,1-1.334.152A3.67,3.67,0,0,1,20508.438,23407.781Zm57.99.547v-5.369a1.823,1.823,0,0,0-.365-1.234,1.25,1.25,0,0,0-.98-.406,1.375,1.375,0,0,0-1.016.406,1.714,1.714,0,0,0-.395,1.234v5.369h-3.488v-5.369a1.833,1.833,0,0,0-.365-1.234,1.253,1.253,0,0,0-.98-.406,1.335,1.335,0,0,0-1.006.406,1.748,1.748,0,0,0-.387,1.234v5.369h-3.49v-9.881h3.49v1.355a4.85,4.85,0,0,1,1.186-1.1,3.065,3.065,0,0,1,1.752-.477,3.348,3.348,0,0,1,1.715.424,2.862,2.862,0,0,1,1.129,1.186,5.153,5.153,0,0,1,1.428-1.18,3.892,3.892,0,0,1,1.879-.43,3.275,3.275,0,0,1,2.484.939,3.731,3.731,0,0,1,.895,2.68v6.48Zm-28.816,0V23395h3.49v13.33Zm-4.711,0-1.992-3.355-.893,1.041v2.314h-3.49V23395h3.49v6.756l2.686-3.3h3.924l-3.432,3.959,3.525,5.916Z" transform="translate(-20496.902 -23373.641)" fill="rgba(0,0,0,0)" stroke="#000" stroke-width="0.5"/>
    </g>
  </g>
</svg>
