<svg id="Group_2454" data-name="Group 2454" xmlns="http://www.w3.org/2000/svg" xmlns:xlink="http://www.w3.org/1999/xlink" width="707.111" height="358.133" viewBox="0 0 707.111 358.133">
  <defs>
    <clipPath id="clip-path">
      <rect id="Rectangle_1614" data-name="Rectangle 1614" width="707.111" height="358.133" fill="none"/>
    </clipPath>
  </defs>
  <g id="Group_2453" data-name="Group 2453" clip-path="url(#clip-path)">
    <path id="Path_19078" data-name="Path 19078" d="M3.091,148.11l11.783-24.337c11.4,6.182,22.405,9.851,36.506,9.851,18.35,0,27.235-8.885,27.235-25.691v-4.055c-7.533,8.5-16.8,15.645-32.064,15.645C20.861,119.523,0,100.98,0,71.041v-.387C0,40.522,21.248,21.979,45.2,21.979c16.031,0,25.109,6.374,32.835,14.679V24.3h36.7v79.387c0,18.931-4.443,32.837-13.522,41.723-9.464,9.851-24.145,14.679-45.97,14.679-20.088,0-36.893-4.25-52.153-11.976M78.808,71.041v-.387c0-11.589-9.078-20.281-21.441-20.281-12.554,0-21.44,8.692-21.44,20.474v.387c0,11.59,8.885,20.088,21.44,20.088S78.808,82.63,78.808,71.041" transform="translate(0 12.209)" fill="#040504"/>
    <path id="Path_19079" data-name="Path 19079" d="M85.926,104.692V36.508h36.7V93.1c0,11.59,5.794,17.577,14.874,17.577s15.452-5.987,15.452-17.577V36.508h36.506V141H152.951V126.519c-6.567,8.692-16.418,16.8-31.292,16.8-22.405,0-35.733-14.679-35.733-38.631M101.764,0h31.1V27.428h-31.1Zm40.37,0h31.291V27.428H142.134Z" transform="translate(47.732)" fill="#040504"/>
    <path id="Path_19080" data-name="Path 19080" d="M160.054,23.47h38.631l20.089,61.038L239.055,23.47h37.858l-41.72,105.27H201.775Z" transform="translate(88.911 13.037)" fill="#040504"/>
    <path id="Path_19081" data-name="Path 19081" d="M236.047,77.029v-.386c0-30.326,21.827-54.664,52.733-54.664,35.926,0,52.537,26.462,52.537,57.174,0,2.318,0,5.023-.193,7.533H271.2c2.9,11.59,11.01,17.191,22.6,17.191,9.079,0,15.645-3.091,23.179-10.624l20.282,16.8c-10.044,12.942-24.337,21.247-45.2,21.247-32.835,0-56.015-22.02-56.015-54.276m71.082-9.078c-1.352-11.59-8.3-18.929-18.349-18.929-9.851,0-16.033,7.339-18.157,18.929Z" transform="translate(131.125 12.21)" fill="#040504"/>
    <path id="Path_19082" data-name="Path 19082" d="M313.9,24.3h36.7V38.979c6.76-8.692,16.418-17,31.292-17,22.406,0,35.54,14.486,35.54,38.438v68.377H380.926V72.2c0-11.589-5.794-17.769-14.874-17.769S350.6,60.611,350.6,72.2v56.6H313.9Z" transform="translate(174.374 12.21)" fill="#040504"/>
    <rect id="Rectangle_1612" data-name="Rectangle 1612" width="36.506" height="141.003" transform="translate(611.695)" fill="#040504"/>
    <path id="Path_19083" data-name="Path 19083" d="M430.123,0h38.052V27.042H430.123Zm.773,36.508H467.4V141H430.9Z" transform="translate(238.935)" fill="#040504"/>
    <path id="Path_19084" data-name="Path 19084" d="M69.989,117.7H33.1v26.462H20.735v29.551H33.1V216.2q0,18.736,9.319,26.655t26.019,7.919a56.683,56.683,0,0,0,14.108-1.641,50.45,50.45,0,0,0,11.4-4.346V216.01a42.316,42.316,0,0,1-6.76,2.511,26.522,26.522,0,0,1-7.146.966q-5.026,0-7.533-2.414t-2.511-8.016V173.711H94.326V144.159H69.989Z" transform="translate(11.518 65.381)" fill="none" stroke="#d60812" stroke-width="1"/>
    <path id="Path_19085" data-name="Path 19085" d="M165.723,146.464A40.317,40.317,0,0,0,149.787,137q-9.753-3.281-23.854-3.284a108.87,108.87,0,0,0-23.466,2.223,114.709,114.709,0,0,0-18.831,5.891l7.532,25.88a98.766,98.766,0,0,1,13.713-4.248,67.746,67.746,0,0,1,15.065-1.546q10.621,0,15.742,4.443t5.118,12.556v1.737a79.5,79.5,0,0,0-11.1-2.8,75.558,75.558,0,0,0-14-1.257,61.812,61.812,0,0,0-16.8,2.126,37.836,37.836,0,0,0-12.845,6.18,28.052,28.052,0,0,0-8.3,10.237,32.378,32.378,0,0,0-2.994,14.294v.386a33.458,33.458,0,0,0,2.7,13.906,28.413,28.413,0,0,0,7.438,10.044A32.711,32.711,0,0,0,96,239.947a43.706,43.706,0,0,0,13.9,2.126q10.43,0,17.867-3.575a41.064,41.064,0,0,0,12.844-9.56v10.815h36.313V179.685a63.646,63.646,0,0,0-2.609-19.218A33.12,33.12,0,0,0,165.723,146.464ZM141.194,201.9q0,7.921-5.024,12.554t-13.133,4.635a14.162,14.162,0,0,1-9.271-2.994,10.227,10.227,0,0,1-3.671-8.4v-.386a11.543,11.543,0,0,1,4.346-9.367q4.347-3.572,12.46-3.575a38.955,38.955,0,0,1,7.821.773,33.886,33.886,0,0,1,6.472,1.932Z" transform="translate(41.523 74.279)" fill="none" stroke="#d60812" stroke-width="1"/>
    <path id="Path_19086" data-name="Path 19086" d="M164.525,230.174l29.166,12.362,12.747-36.312H182.294Z" transform="translate(91.394 114.558)" fill="none" stroke="#d60812" stroke-width="1"/>
    <path id="Path_19087" data-name="Path 19087" d="M228.7,184.817a48.851,48.851,0,0,0-11.781-6.374q-6.764-2.606-14.486-4.732-8.306-2.508-12.652-4.346t-4.345-4.925v-.387a4.238,4.238,0,0,1,2.125-3.573q2.121-1.449,6.373-1.448a49.315,49.315,0,0,1,14.486,2.61,90.744,90.744,0,0,1,16.418,7.048L237.4,145.511a76.277,76.277,0,0,0-20.281-8.981,82.908,82.908,0,0,0-22.793-3.187,57.271,57.271,0,0,0-16.706,2.318,40.6,40.6,0,0,0-13.231,6.664A30.625,30.625,0,0,0,155.6,153.14a33.043,33.043,0,0,0-3.186,14.776v.386a26.129,26.129,0,0,0,10.815,22.5,48.762,48.762,0,0,0,11.781,6.374,122.964,122.964,0,0,0,14.486,4.539,122.306,122.306,0,0,1,12.555,4.057q4.249,1.736,4.25,4.828v.386q0,5.6-9.271,5.6a57.536,57.536,0,0,1-17.481-2.994,74.863,74.863,0,0,1-18.445-8.98l-13.713,22.211a79,79,0,0,0,23.564,11.686,89.591,89.591,0,0,0,25.882,3.766,64.36,64.36,0,0,0,17.383-2.221,37.949,37.949,0,0,0,13.52-6.664,30.541,30.541,0,0,0,8.692-10.913,34.858,34.858,0,0,0,3.091-15.162v-.387a27.045,27.045,0,0,0-2.9-12.94A27.762,27.762,0,0,0,228.7,184.817Z" transform="translate(81.875 74.072)" fill="none" stroke="#d60812" stroke-width="1"/>
    <rect id="Rectangle_1613" data-name="Rectangle 1613" width="36.89" height="104.493" transform="translate(337.234 209.541)" fill="none" stroke="#d60812" stroke-width="1"/>
    <path id="Path_19088" data-name="Path 19088" d="M386.619,133.219q-11.594,0-19.9,4.539a53.68,53.68,0,0,0-15.071,12.458,30.437,30.437,0,0,0-11.97-12.554,35.789,35.789,0,0,0-18.15-4.443q-11.011,0-18.537,5.023a51.732,51.732,0,0,0-12.548,11.589V135.537H253.552V240.031h36.892V183.244q0-8.691,4.125-13.037a14.019,14.019,0,0,1,10.647-4.346,13.123,13.123,0,0,1,10.361,4.346q3.838,4.345,3.837,13.037v56.787h36.892V183.244q0-8.691,4.22-13.037a14.329,14.329,0,0,1,10.745-4.346,13.123,13.123,0,0,1,10.361,4.346q3.838,4.345,3.839,13.037v56.787h36.89V171.463q0-18.349-9.467-28.3T386.619,133.219Z" transform="translate(140.849 74.004)" fill="none" stroke="#d60812" stroke-width="1"/>
    <path id="Path_19089" data-name="Path 19089" d="M470.336,160.467a33.12,33.12,0,0,0-8.594-14A40.317,40.317,0,0,0,445.806,137q-9.753-3.281-23.854-3.284a108.87,108.87,0,0,0-23.466,2.223,114.726,114.726,0,0,0-18.833,5.891l7.533,25.88a98.7,98.7,0,0,1,13.713-4.248,67.746,67.746,0,0,1,15.065-1.546q10.621,0,15.742,4.443t5.118,12.556v1.737a79.5,79.5,0,0,0-11.1-2.8,75.558,75.558,0,0,0-14-1.257,61.812,61.812,0,0,0-16.8,2.126,37.836,37.836,0,0,0-12.845,6.18,28.052,28.052,0,0,0-8.3,10.237,32.378,32.378,0,0,0-2.994,14.294v.386a33.458,33.458,0,0,0,2.7,13.906,28.41,28.41,0,0,0,7.437,10.044,32.726,32.726,0,0,0,11.106,6.18,43.722,43.722,0,0,0,13.906,2.126q10.43,0,17.867-3.575a41.082,41.082,0,0,0,12.844-9.56v10.815h36.313V179.685A63.647,63.647,0,0,0,470.336,160.467ZM437.211,201.9q0,7.921-5.023,12.554t-13.133,4.635a14.162,14.162,0,0,1-9.271-2.994,10.227,10.227,0,0,1-3.671-8.4v-.386a11.544,11.544,0,0,1,4.346-9.367q4.347-3.572,12.46-3.575a38.955,38.955,0,0,1,7.821.773,33.833,33.833,0,0,1,6.471,1.932Z" transform="translate(205.963 74.279)" fill="none" stroke="#d60812" stroke-width="1"/>
  </g>
</svg>
