<svg xmlns="http://www.w3.org/2000/svg" width="60.404" height="35.836" viewBox="0 0 60.404 35.836">
  <g id="Group_2447" data-name="Group 2447" transform="translate(0.498 0.502)">
    <g id="Group_2448" data-name="Group 2448">
      <path id="Union_68" data-name="Union 68" d="M20691.277,23414.213a8.877,8.877,0,0,1-2.033-.746l.986-2.045a7.485,7.485,0,0,0,1.445.611,5.637,5.637,0,0,0,1.623.217,2.4,2.4,0,0,0,1.738-.553,2.127,2.127,0,0,0,.564-1.6v-.342a4.582,4.582,0,0,1-1.1.924,3.016,3.016,0,0,1-1.605.393,4.056,4.056,0,0,1-1.516-.287,3.646,3.646,0,0,1-1.234-.811,3.84,3.84,0,0,1-.834-1.281,4.47,4.47,0,0,1-.307-1.693v-.035a4.514,4.514,0,0,1,.307-1.7,3.872,3.872,0,0,1,.828-1.293,3.7,3.7,0,0,1,1.211-.811,3.754,3.754,0,0,1,1.451-.283,3.229,3.229,0,0,1,1.621.359,4.761,4.761,0,0,1,1.135.875v-1.041h3.086v6.67a6.822,6.822,0,0,1-.277,2.068,3.53,3.53,0,0,1-.857,1.439,3.919,3.919,0,0,1-1.545.918,7.354,7.354,0,0,1-2.322.316A9.98,9.98,0,0,1,20691.277,23414.213Zm1.246-8.451a1.624,1.624,0,0,0-.506,1.217v.029a1.6,1.6,0,0,0,.506,1.211,1.8,1.8,0,0,0,1.3.477,1.763,1.763,0,0,0,1.279-.482,1.631,1.631,0,0,0,.5-1.217v-.035a1.594,1.594,0,0,0-.5-1.211,1.79,1.79,0,0,0-1.279-.475A1.765,1.765,0,0,0,20692.523,23405.762Zm30.127,5.959a4.531,4.531,0,0,1-1.48-.922,4.15,4.15,0,0,1-.977-1.439,4.886,4.886,0,0,1-.346-1.863v-.035a4.918,4.918,0,0,1,.322-1.793,4.461,4.461,0,0,1,.918-1.457,4.224,4.224,0,0,1,1.4-.98,4.3,4.3,0,0,1,1.785-.359,4.617,4.617,0,0,1,1.969.389,3.92,3.92,0,0,1,1.381,1.045,4.42,4.42,0,0,1,.811,1.529,6.2,6.2,0,0,1,.266,1.838v.313a2.962,2.962,0,0,1-.012.322h-5.877a1.778,1.778,0,0,0,.676,1.088,2.014,2.014,0,0,0,1.223.357,2.418,2.418,0,0,0,1.016-.211,3.432,3.432,0,0,0,.936-.682l1.7,1.41a4.736,4.736,0,0,1-1.568,1.3,4.833,4.833,0,0,1-2.25.488A5.191,5.191,0,0,1,20722.65,23411.721Zm.635-6.146a2.265,2.265,0,0,0-.518,1.158h3.051a1.93,1.93,0,0,0-.488-1.158,1.366,1.366,0,0,0-1.035-.434A1.3,1.3,0,0,0,20723.285,23405.574Zm-22.271,5.605a3.383,3.383,0,0,1-.787-2.367v-5.748h3.1v4.76a1.6,1.6,0,0,0,.334,1.1,1.161,1.161,0,0,0,.9.377,1.212,1.212,0,0,0,.912-.377,1.523,1.523,0,0,0,.363-1.1v-4.76h3.1v8.779h-3.1v-1.2a4.334,4.334,0,0,1-1.057.975,2.764,2.764,0,0,1-1.57.418A2.831,2.831,0,0,1,20701.014,23411.18Zm12.4.729-3.5-8.844h3.244l1.686,5.131,1.693-5.131h3.191l-3.5,8.844Zm31.826-.064v-8.779h3.1v8.779Zm-4.871,0V23400h3.1v11.846Zm-4.736,0v-4.754a1.614,1.614,0,0,0-.34-1.1,1.144,1.144,0,0,0-.889-.371,1.248,1.248,0,0,0-.928.371,1.535,1.535,0,0,0-.359,1.1v4.754h-3.1v-8.779h3.1v1.234a5.327,5.327,0,0,1,.465-.535,3.186,3.186,0,0,1,1.293-.77,2.794,2.794,0,0,1,.852-.123,2.86,2.86,0,0,1,2.215.863,3.369,3.369,0,0,1,.789,2.369v5.74Zm-30.586-9.525V23400h2.674v2.32Zm-3.555,0V23400h2.674v2.32Zm43.678-.047V23400h3.232v2.273Z" transform="translate(-20689 -23400)" stroke="rgba(0,0,0,0)" stroke-width="1"/>
      <path id="Union_69" data-name="Union 69" d="M20707.787,23413.582l1.494-2.01h2.027l-1.07,3.049Zm28.742-2.562a2.759,2.759,0,0,1-.936-.518,2.436,2.436,0,0,1-.627-.846,2.854,2.854,0,0,1-.225-1.17v-.029a2.667,2.667,0,0,1,.254-1.2,2.3,2.3,0,0,1,.693-.859,3.252,3.252,0,0,1,1.08-.521,5.208,5.208,0,0,1,1.41-.178,6.424,6.424,0,0,1,1.182.105,6.6,6.6,0,0,1,.928.236v-.146a1.312,1.312,0,0,0-.428-1.053,1.968,1.968,0,0,0-1.322-.377,5.473,5.473,0,0,0-1.264.131,8.12,8.12,0,0,0-1.152.357l-.635-2.174a9.577,9.577,0,0,1,1.582-.494,9.215,9.215,0,0,1,1.969-.187,6.427,6.427,0,0,1,2.01.275,3.365,3.365,0,0,1,1.338.795,2.748,2.748,0,0,1,.719,1.18,5.3,5.3,0,0,1,.223,1.611V23411h-3.051v-.91a3.406,3.406,0,0,1-1.08.8,3.465,3.465,0,0,1-1.5.3A3.719,3.719,0,0,1,20736.529,23411.02Zm1.545-3.531a.979.979,0,0,0-.363.787v.035a.867.867,0,0,0,.311.705,1.206,1.206,0,0,0,.775.248,1.545,1.545,0,0,0,1.105-.389,1.361,1.361,0,0,0,.422-1.053v-.4a2.74,2.74,0,0,0-.545-.164,3.256,3.256,0,0,0-.658-.066A1.622,1.622,0,0,0,20738.074,23407.488Zm-30.545,3.391a6.664,6.664,0,0,1-1.98-.977l1.152-1.867a6.291,6.291,0,0,0,1.551.752,4.756,4.756,0,0,0,1.469.252c.518,0,.781-.158.781-.471v-.029c0-.176-.123-.311-.357-.41a10.538,10.538,0,0,0-1.059-.336,10.95,10.95,0,0,1-1.215-.387,3.869,3.869,0,0,1-.988-.535,2.342,2.342,0,0,1-.67-.77,2.386,2.386,0,0,1-.24-1.117v-.035a2.737,2.737,0,0,1,.27-1.24,2.588,2.588,0,0,1,.734-.91,3.537,3.537,0,0,1,1.111-.559,4.872,4.872,0,0,1,1.4-.193,6.849,6.849,0,0,1,1.916.27,6.438,6.438,0,0,1,1.7.752l-1.057,1.945a7.545,7.545,0,0,0-1.375-.588,4.151,4.151,0,0,0-1.217-.223.938.938,0,0,0-.535.123.355.355,0,0,0-.182.3v.029c0,.176.123.311.363.416a11.147,11.147,0,0,0,1.064.365,11.86,11.86,0,0,1,1.217.4,3.957,3.957,0,0,1,.992.535,2.321,2.321,0,0,1,.664.77,2.244,2.244,0,0,1,.242,1.088v.035a2.873,2.873,0,0,1-.26,1.27,2.509,2.509,0,0,1-.729.916,3.223,3.223,0,0,1-1.135.564,5.487,5.487,0,0,1-1.463.182A7.534,7.534,0,0,1,20707.529,23410.879Zm-9.689.141a2.787,2.787,0,0,1-.93-.518,2.436,2.436,0,0,1-.627-.846,2.854,2.854,0,0,1-.225-1.17v-.029a2.747,2.747,0,0,1,.248-1.2,2.376,2.376,0,0,1,.7-.859,3.252,3.252,0,0,1,1.08-.521,5.2,5.2,0,0,1,1.41-.178,6.314,6.314,0,0,1,1.176.105,6.49,6.49,0,0,1,.934.236v-.146a1.312,1.312,0,0,0-.428-1.053,1.968,1.968,0,0,0-1.322-.377,5.549,5.549,0,0,0-1.27.131,8.617,8.617,0,0,0-1.152.357l-.629-2.174a9.4,9.4,0,0,1,1.582-.494,9.215,9.215,0,0,1,1.969-.187,6.431,6.431,0,0,1,2.008.275,3.376,3.376,0,0,1,1.334.795,2.817,2.817,0,0,1,.725,1.18,5.309,5.309,0,0,1,.217,1.611V23411h-3.051v-.91a3.319,3.319,0,0,1-1.074.8,3.465,3.465,0,0,1-1.5.3A3.73,3.73,0,0,1,20697.84,23411.02Zm1.551-3.531a.979.979,0,0,0-.363.787v.035a.863.863,0,0,0,.3.705,1.222,1.222,0,0,0,.781.248,1.554,1.554,0,0,0,1.105-.389,1.361,1.361,0,0,0,.422-1.053v-.4a2.74,2.74,0,0,0-.545-.164,3.3,3.3,0,0,0-.658-.066A1.622,1.622,0,0,0,20699.391,23407.488Zm-8.568,3.025a2.8,2.8,0,0,1-.781-2.238v-3.572H20689v-2.48h1.039V23400h3.1v2.221h2.045v2.48h-2.045v2.973a.9.9,0,0,0,.211.67.854.854,0,0,0,.635.205,2.086,2.086,0,0,0,.6-.082,3.275,3.275,0,0,0,.564-.211v2.422a4.547,4.547,0,0,1-.953.363,4.707,4.707,0,0,1-1.186.135A3.261,3.261,0,0,1,20690.822,23410.514Zm39.684.488v-4.771a1.635,1.635,0,0,0-.316-1.094,1.112,1.112,0,0,0-.877-.363,1.184,1.184,0,0,0-.9.363,1.5,1.5,0,0,0-.359,1.094V23411h-3.1v-4.771a1.625,1.625,0,0,0-.324-1.094,1.093,1.093,0,0,0-.869-.363,1.159,1.159,0,0,0-.893.363,1.515,1.515,0,0,0-.348,1.094V23411h-3.1v-8.779h3.1v1.205a4.218,4.218,0,0,1,1.053-.977,2.741,2.741,0,0,1,1.557-.422,2.992,2.992,0,0,1,1.527.375,2.6,2.6,0,0,1,1.006,1.053,4.486,4.486,0,0,1,1.264-1.047,3.458,3.458,0,0,1,1.674-.381,2.9,2.9,0,0,1,2.2.834,3.3,3.3,0,0,1,.8,2.381V23411Zm-15.883,0v-8.779h3.1V23411Z" transform="translate(-20686.518 -23379.621)" fill="rgba(0,0,0,0)" stroke="#000" stroke-width="0.5"/>
    </g>
  </g>
</svg>
