<svg id="Group_2444" data-name="Group 2444" xmlns="http://www.w3.org/2000/svg" xmlns:xlink="http://www.w3.org/1999/xlink" width="994.609" height="344.578" viewBox="0 0 994.609 344.578">
  <defs>
    <clipPath id="clip-path">
      <rect id="Rectangle_1608" data-name="Rectangle 1608" width="994.609" height="344.578" fill="none"/>
    </clipPath>
  </defs>
  <g id="Group_2444-2" data-name="Group 2444" clip-path="url(#clip-path)">
    <path id="Path_19040" data-name="Path 19040" d="M103.773,0h38.619V53.176a53.982,53.982,0,0,1,13.059-12.131q7.838-5.256,19.493-5.258,17.686,0,27.546,10.716t9.86,29.52V147.6H173.731V88.358q0-9.1-4.221-13.75a14.215,14.215,0,0,0-11.048-4.65,15.414,15.414,0,0,0-11.55,4.65q-4.521,4.653-4.52,13.75V147.6H103.773Z" transform="translate(65.203)" fill="#040504"/>
    <path id="Path_19041" data-name="Path 19041" d="M215.942,135.9a45.815,45.815,0,0,1-14.557-2.224,34.3,34.3,0,0,1-11.626-6.469,29.753,29.753,0,0,1-7.785-10.514,35.023,35.023,0,0,1-2.83-14.557v-.4a33.889,33.889,0,0,1,3.135-14.963,29.371,29.371,0,0,1,8.694-10.718,39.668,39.668,0,0,1,13.447-6.469,64.772,64.772,0,0,1,17.589-2.224,79.239,79.239,0,0,1,14.66,1.314,83.2,83.2,0,0,1,11.625,2.933v-1.82q0-8.493-5.357-13.142t-16.479-4.65a70.917,70.917,0,0,0-15.77,1.619A103.1,103.1,0,0,0,196.33,58.06l-7.886-27.092A120.26,120.26,0,0,1,208.158,24.8a114.078,114.078,0,0,1,24.565-2.325q14.757,0,24.97,3.437a42.2,42.2,0,0,1,16.681,9.908,34.647,34.647,0,0,1,9,14.658A66.617,66.617,0,0,1,286.1,70.6v62.881H248.09V122.156a43.055,43.055,0,0,1-13.445,10.008q-7.787,3.739-18.7,3.74m13.75-24.06q8.493,0,13.748-4.852T248.7,93.849V88.793a35.575,35.575,0,0,0-6.774-2.021,40.781,40.781,0,0,0-8.189-.809q-8.493,0-13.041,3.74a12.088,12.088,0,0,0-4.55,9.806v.405a10.705,10.705,0,0,0,3.843,8.795,14.833,14.833,0,0,0,9.7,3.135" transform="translate(112.56 14.122)" fill="#040504"/>
    <path id="Path_19042" data-name="Path 19042" d="M303.544,136.139a93.785,93.785,0,0,1-27.094-3.942,82.719,82.719,0,0,1-24.667-12.234l14.355-23.251a78.386,78.386,0,0,0,19.31,9.4,60.258,60.258,0,0,0,18.3,3.133q9.7,0,9.7-5.864v-.4q0-3.231-4.447-5.054a128.16,128.16,0,0,0-13.142-4.247A128.414,128.414,0,0,1,280.7,88.927a50.984,50.984,0,0,1-12.333-6.673,28.981,28.981,0,0,1-8.291-9.6A29.247,29.247,0,0,1,257.041,58.7v-.4a34.569,34.569,0,0,1,3.336-15.467,32.009,32.009,0,0,1,9.2-11.323,42.461,42.461,0,0,1,13.849-6.974,59.908,59.908,0,0,1,17.49-2.428,86.779,86.779,0,0,1,23.858,3.336A79.846,79.846,0,0,1,346,34.84L332.862,59.1a95.118,95.118,0,0,0-17.187-7.38,51.668,51.668,0,0,0-15.163-2.731q-4.45,0-6.673,1.518a4.43,4.43,0,0,0-2.224,3.739v.405q0,3.236,4.55,5.155t13.243,4.55q8.085,2.228,15.165,4.953a51.106,51.106,0,0,1,12.333,6.673,29.061,29.061,0,0,1,8.29,9.6,28.311,28.311,0,0,1,3.034,13.546v.405a36.49,36.49,0,0,1-3.235,15.871,31.966,31.966,0,0,1-9.1,11.424,39.746,39.746,0,0,1-14.155,6.976,67.373,67.373,0,0,1-18.2,2.325" transform="translate(158.202 13.887)" fill="#040504"/>
    <path id="Path_19043" data-name="Path 19043" d="M366.125,136.139a93.785,93.785,0,0,1-27.094-3.942,82.72,82.72,0,0,1-24.667-12.234l14.355-23.251a78.385,78.385,0,0,0,19.31,9.4,60.258,60.258,0,0,0,18.3,3.133q9.7,0,9.7-5.864v-.4q0-3.231-4.447-5.054a128.153,128.153,0,0,0-13.142-4.247,128.423,128.423,0,0,1-15.165-4.751,50.983,50.983,0,0,1-12.333-6.673,28.98,28.98,0,0,1-8.291-9.6A29.248,29.248,0,0,1,319.622,58.7v-.4a34.569,34.569,0,0,1,3.336-15.467,32.009,32.009,0,0,1,9.2-11.323,42.46,42.46,0,0,1,13.849-6.974A59.908,59.908,0,0,1,363.5,22.1a86.779,86.779,0,0,1,23.858,3.336,79.848,79.848,0,0,1,21.23,9.4L395.443,59.1a95.117,95.117,0,0,0-17.187-7.38,51.669,51.669,0,0,0-15.163-2.731q-4.45,0-6.673,1.518A4.43,4.43,0,0,0,354.2,54.25v.405q0,3.236,4.55,5.155t13.243,4.55q8.085,2.228,15.165,4.953a51.108,51.108,0,0,1,12.333,6.673,29.061,29.061,0,0,1,8.29,9.6,28.311,28.311,0,0,1,3.034,13.546v.405a36.49,36.49,0,0,1-3.235,15.871,31.965,31.965,0,0,1-9.1,11.424,39.745,39.745,0,0,1-14.155,6.976,67.373,67.373,0,0,1-18.2,2.325" transform="translate(197.523 13.887)" fill="#040504"/>
    <path id="Path_19044" data-name="Path 19044" d="M416.724,135.9a45.815,45.815,0,0,1-14.557-2.224,34.3,34.3,0,0,1-11.626-6.469,29.752,29.752,0,0,1-7.785-10.514,35.024,35.024,0,0,1-2.83-14.557v-.4a33.889,33.889,0,0,1,3.135-14.963,29.37,29.37,0,0,1,8.694-10.718A39.668,39.668,0,0,1,405.2,69.586a64.772,64.772,0,0,1,17.589-2.224,79.238,79.238,0,0,1,14.66,1.314,83.2,83.2,0,0,1,11.625,2.933v-1.82q0-8.493-5.357-13.142t-16.479-4.65a70.918,70.918,0,0,0-15.77,1.619,103.107,103.107,0,0,0-14.355,4.447l-7.886-27.092A120.258,120.258,0,0,1,408.941,24.8a114.078,114.078,0,0,1,24.565-2.325q14.758,0,24.97,3.437a42.2,42.2,0,0,1,16.681,9.908,34.648,34.648,0,0,1,9,14.658A66.62,66.62,0,0,1,486.886,70.6v62.881H448.873V122.156a43.055,43.055,0,0,1-13.445,10.008q-7.787,3.739-18.7,3.74m13.75-24.06q8.493,0,13.748-4.852t5.258-13.142V88.793a35.575,35.575,0,0,0-6.774-2.021,40.781,40.781,0,0,0-8.189-.809q-8.492,0-13.041,3.74a12.088,12.088,0,0,0-4.55,9.806v.405a10.705,10.705,0,0,0,3.843,8.795,14.833,14.833,0,0,0,9.7,3.135" transform="translate(238.717 14.122)" fill="#040504"/>
    <path id="Path_19045" data-name="Path 19045" d="M504.326,136.139a93.785,93.785,0,0,1-27.094-3.942,82.719,82.719,0,0,1-24.667-12.234L466.92,96.712a78.385,78.385,0,0,0,19.31,9.4,60.258,60.258,0,0,0,18.3,3.133q9.7,0,9.7-5.864v-.4q0-3.231-4.447-5.054a128.156,128.156,0,0,0-13.142-4.247,128.421,128.421,0,0,1-15.165-4.751,50.985,50.985,0,0,1-12.333-6.673,28.981,28.981,0,0,1-8.291-9.6A29.248,29.248,0,0,1,457.823,58.7v-.4a34.569,34.569,0,0,1,3.336-15.467,32.009,32.009,0,0,1,9.2-11.323,42.461,42.461,0,0,1,13.849-6.974A59.908,59.908,0,0,1,501.7,22.1a86.779,86.779,0,0,1,23.858,3.336,79.847,79.847,0,0,1,21.23,9.4L533.644,59.1a95.122,95.122,0,0,0-17.187-7.38,51.668,51.668,0,0,0-15.163-2.731q-4.45,0-6.673,1.518A4.43,4.43,0,0,0,492.4,54.25v.405q0,3.236,4.549,5.155t13.243,4.55q8.085,2.228,15.164,4.953a51.107,51.107,0,0,1,12.333,6.673,29.061,29.061,0,0,1,8.29,9.6,28.311,28.311,0,0,1,3.034,13.546v.405a36.49,36.49,0,0,1-3.235,15.871,31.966,31.966,0,0,1-9.1,11.424,39.747,39.747,0,0,1-14.155,6.976,67.373,67.373,0,0,1-18.2,2.325" transform="translate(284.358 13.887)" fill="#040504"/>
    <path id="Path_19046" data-name="Path 19046" d="M46.422,248.311a42.5,42.5,0,0,1-17.581-3.747,43.392,43.392,0,0,1-14.6-10.664,52.262,52.262,0,0,1-9.991-16.909A63.634,63.634,0,0,1,.5,194.511v-.384a66.583,66.583,0,0,1,3.651-22.769,51.047,51.047,0,0,1,9.991-17.1,44.111,44.111,0,0,1,14.6-10.76A41.841,41.841,0,0,1,46.23,139.75q11.717,0,19.214,4.515a52.794,52.794,0,0,1,12.681,10.472v-49h36.507V246H78.126V232.171a56.556,56.556,0,0,1-12.681,11.336Q58.139,248.309,46.422,248.311ZM57.566,217.76a19.9,19.9,0,0,0,8.262-1.729,20.243,20.243,0,0,0,6.725-4.9,23.2,23.2,0,0,0,4.515-7.494,26.738,26.738,0,0,0,1.633-9.511v-.384a25.966,25.966,0,0,0-1.633-9.415,23.468,23.468,0,0,0-4.515-7.4,20.242,20.242,0,0,0-6.725-4.9,20.6,20.6,0,0,0-16.524,0,20.9,20.9,0,0,0-6.725,4.8,23.376,23.376,0,0,0-4.611,7.4,25.387,25.387,0,0,0-1.729,9.511v.384a25.387,25.387,0,0,0,1.729,9.511,24.593,24.593,0,0,0,4.611,7.494,20.21,20.21,0,0,0,6.725,4.9A19.888,19.888,0,0,0,57.566,217.76Z" transform="translate(0.314 66.44)" fill="none" stroke="#d60812" stroke-width="1"/>
    <path id="Path_19047" data-name="Path 19047" d="M137.289,235.38a60.8,60.8,0,0,1-22.961-4.227,56.137,56.137,0,0,1-18.157-11.625,52.349,52.349,0,0,1-16.14-38.14V181a52,52,0,0,1,4.323-21.04,53.464,53.464,0,0,1,12.009-17.293,57.3,57.3,0,0,1,18.254-11.721,60.311,60.311,0,0,1,23.057-4.323,59.6,59.6,0,0,1,22.961,4.323,58.459,58.459,0,0,1,18.157,11.625,51.52,51.52,0,0,1,11.913,17.1,52.334,52.334,0,0,1,4.227,20.944V181a51.974,51.974,0,0,1-4.323,21.04A53.437,53.437,0,0,1,178.6,219.336a57.284,57.284,0,0,1-18.254,11.721A60.323,60.323,0,0,1,137.289,235.38Zm.384-31.127a21.829,21.829,0,0,0,9.031-1.811,19.827,19.827,0,0,0,6.821-4.953,22.769,22.769,0,0,0,4.323-7.337,25.268,25.268,0,0,0,1.537-8.767V181a24.468,24.468,0,0,0-1.633-8.956,22.347,22.347,0,0,0-4.611-7.337,23.258,23.258,0,0,0-7.013-5.049,20.447,20.447,0,0,0-8.839-1.907,21.8,21.8,0,0,0-9.031,1.811,19.8,19.8,0,0,0-6.821,4.957,22.728,22.728,0,0,0-4.323,7.337,25.233,25.233,0,0,0-1.537,8.764V181a24.457,24.457,0,0,0,1.633,8.959,22.269,22.269,0,0,0,4.611,7.334,23.21,23.21,0,0,0,7.013,5.049A20.39,20.39,0,0,0,137.674,204.253Z" transform="translate(50.286 79.563)" fill="none" stroke="#d60812" stroke-width="1"/>
    <path id="Path_19048" data-name="Path 19048" d="M155.433,207.911l48.036-51.048H157.162v-28.82h94.726v24.08L203.661,203.17h48.228v28.823H155.433Z" transform="translate(97.663 80.453)" fill="none" stroke="#d60812" stroke-width="1"/>
    <path id="Path_19049" data-name="Path 19049" d="M255.892,234.891a43.526,43.526,0,0,1-13.834-2.114,32.6,32.6,0,0,1-11.048-6.149,28.266,28.266,0,0,1-7.4-9.991,33.267,33.267,0,0,1-2.69-13.834v-.384A32.214,32.214,0,0,1,223.9,188.2a27.9,27.9,0,0,1,8.262-10.184,37.7,37.7,0,0,1,12.777-6.149,61.548,61.548,0,0,1,16.716-2.114A75.187,75.187,0,0,1,275.587,171a78.959,78.959,0,0,1,11.048,2.786V172.06q0-8.07-5.092-12.489t-15.66-4.419a67.411,67.411,0,0,0-14.987,1.537,97.861,97.861,0,0,0-13.642,4.227l-7.494-25.747a114.272,114.272,0,0,1,18.734-5.86,108.3,108.3,0,0,1,23.345-2.21q14.022,0,23.73,3.266a40.1,40.1,0,0,1,15.852,9.415,32.933,32.933,0,0,1,8.55,13.93,63.336,63.336,0,0,1,2.594,19.118v59.756H286.443v-10.76a40.924,40.924,0,0,1-12.777,9.511Q266.267,234.888,255.892,234.891Zm13.066-22.865q8.07,0,13.066-4.611t5-12.489v-4.8a33.68,33.68,0,0,0-6.437-1.921,38.836,38.836,0,0,0-7.782-.769q-8.07,0-12.393,3.555a11.485,11.485,0,0,0-4.323,9.319v.384a10.179,10.179,0,0,0,3.651,8.358A14.092,14.092,0,0,0,268.958,212.026Z" transform="translate(138.811 79.86)" fill="none" stroke="#d60812" stroke-width="1"/>
    <path id="Path_19050" data-name="Path 19050" d="M300.691,277.324a62.579,62.579,0,0,1-8.07-.48q-3.649-.481-6.917-.865v-24.21a14.705,14.705,0,0,0,2.4.192h2.4q5.378,0,8.07-2.69t2.692-9.415v-97.8h36.7v99.338a49.14,49.14,0,0,1-2.513,16.716,26.938,26.938,0,0,1-7.241,11.144,28.749,28.749,0,0,1-11.688,6.149A59.653,59.653,0,0,1,300.691,277.324ZM300.5,105.741h38.236v26.9H300.5Z" transform="translate(179.515 66.44)" fill="none" stroke="#d60812" stroke-width="1"/>
    <rect id="Rectangle_1607" data-name="Rectangle 1607" width="36.699" height="140.264" transform="translate(538.806 172.181)" fill="none" stroke="#d60812" stroke-width="1"/>
    <path id="Path_19051" data-name="Path 19051" d="M397.606,234.891a43.527,43.527,0,0,1-13.834-2.114,32.6,32.6,0,0,1-11.048-6.149,28.267,28.267,0,0,1-7.4-9.991,33.268,33.268,0,0,1-2.69-13.834v-.384a32.214,32.214,0,0,1,2.978-14.219,27.9,27.9,0,0,1,8.262-10.184,37.7,37.7,0,0,1,12.777-6.149,61.548,61.548,0,0,1,16.716-2.114A75.187,75.187,0,0,1,417.3,171a78.96,78.96,0,0,1,11.048,2.786V172.06q0-8.07-5.092-12.489t-15.66-4.419a67.411,67.411,0,0,0-14.987,1.537,97.864,97.864,0,0,0-13.642,4.227l-7.494-25.747a114.274,114.274,0,0,1,18.734-5.86,108.3,108.3,0,0,1,23.345-2.21q14.022,0,23.73,3.266a40.1,40.1,0,0,1,15.852,9.415,32.931,32.931,0,0,1,8.55,13.93,63.334,63.334,0,0,1,2.594,19.118v59.756H428.157v-10.76a40.925,40.925,0,0,1-12.777,9.511Q407.981,234.888,397.606,234.891Zm13.066-22.865q8.07,0,13.066-4.611t5-12.489v-4.8A33.679,33.679,0,0,0,422.3,188.2a38.835,38.835,0,0,0-7.782-.769q-8.07,0-12.393,3.555a11.485,11.485,0,0,0-4.323,9.319v.384a10.179,10.179,0,0,0,3.651,8.358A14.092,14.092,0,0,0,410.672,212.026Z" transform="translate(227.854 79.86)" fill="none" stroke="#d60812" stroke-width="1"/>
    <path id="Path_19052" data-name="Path 19052" d="M436.5,128.933h36.7v14.219a51.451,51.451,0,0,1,12.483-11.529q7.491-4.995,18.439-5a35.6,35.6,0,0,1,18.056,4.419,30.275,30.275,0,0,1,11.906,12.489,53.4,53.4,0,0,1,14.994-12.393q8.263-4.514,19.8-4.515,16.724,0,26.141,9.9t9.418,28.149v68.211h-36.7v-56.49q0-8.646-3.818-12.97a13.059,13.059,0,0,0-10.307-4.323,14.255,14.255,0,0,0-10.69,4.323q-4.2,4.323-4.2,12.97v56.49h-36.7v-56.49q0-8.646-3.818-12.97A13.058,13.058,0,0,0,487.9,159.1a13.949,13.949,0,0,0-10.592,4.323q-4.106,4.323-4.1,12.97v56.49H436.5Z" transform="translate(274.267 79.563)" fill="none" stroke="#d60812" stroke-width="1"/>
    <path id="Path_19053" data-name="Path 19053" d="M582.864,234.891a43.526,43.526,0,0,1-13.834-2.114,32.6,32.6,0,0,1-11.048-6.149,28.266,28.266,0,0,1-7.4-9.991A33.266,33.266,0,0,1,547.9,202.8v-.384a32.214,32.214,0,0,1,2.977-14.219,27.9,27.9,0,0,1,8.262-10.184,37.7,37.7,0,0,1,12.779-6.149,61.537,61.537,0,0,1,16.715-2.114A75.175,75.175,0,0,1,602.559,171a78.959,78.959,0,0,1,11.048,2.786V172.06q0-8.07-5.092-12.489t-15.658-4.419a67.417,67.417,0,0,0-14.989,1.537,97.923,97.923,0,0,0-13.642,4.227l-7.494-25.747a114.274,114.274,0,0,1,18.734-5.86,108.305,108.305,0,0,1,23.345-2.21q14.022,0,23.73,3.266a40.088,40.088,0,0,1,15.852,9.415,32.933,32.933,0,0,1,8.55,13.93,63.331,63.331,0,0,1,2.6,19.118v59.756H613.415v-10.76a40.925,40.925,0,0,1-12.777,9.511Q593.242,234.888,582.864,234.891Zm13.067-22.865q8.067,0,13.064-4.611t5-12.489v-4.8a33.68,33.68,0,0,0-6.437-1.921,38.837,38.837,0,0,0-7.782-.769q-8.07,0-12.393,3.555a11.484,11.484,0,0,0-4.322,9.319v.384a10.174,10.174,0,0,0,3.651,8.358A14.085,14.085,0,0,0,595.932,212.026Z" transform="translate(344.257 79.86)" fill="none" stroke="#d60812" stroke-width="1"/>
  </g>
</svg>
