<svg xmlns="http://www.w3.org/2000/svg" width="87.16" height="35.75" viewBox="0 0 87.16 35.75">
  <g id="Group_2445" data-name="Group 2445" transform="translate(0.163 0.501)">
    <g id="Group_2449" data-name="Group 2449" transform="translate(0.09)">
      <path id="Union_71" data-name="Union 71" d="M20950.627,23411.748a7.18,7.18,0,0,1-2.15-1.064l1.252-2.033a6.86,6.86,0,0,0,1.686.824,5.257,5.257,0,0,0,1.6.27q.847,0,.846-.512v-.035q0-.281-.387-.439a10.708,10.708,0,0,0-1.146-.371,11.946,11.946,0,0,1-1.328-.412,4.462,4.462,0,0,1-1.074-.586,2.51,2.51,0,0,1-.723-.836,2.559,2.559,0,0,1-.266-1.221v-.035a3.02,3.02,0,0,1,.289-1.346,2.856,2.856,0,0,1,.8-.988,3.715,3.715,0,0,1,1.211-.609,5.155,5.155,0,0,1,1.527-.213,7.738,7.738,0,0,1,2.08.289,7.068,7.068,0,0,1,1.85.822l-1.145,2.121a8.244,8.244,0,0,0-1.5-.646,4.542,4.542,0,0,0-1.322-.24,1.072,1.072,0,0,0-.588.135.39.39,0,0,0-.193.328v.035c0,.184.135.336.4.447s.652.246,1.158.4c.471.131.91.271,1.322.43a4.455,4.455,0,0,1,1.074.582,2.523,2.523,0,0,1,.723.84,2.455,2.455,0,0,1,.266,1.182v.035a3.173,3.173,0,0,1-.283,1.387,2.781,2.781,0,0,1-.793,1,3.426,3.426,0,0,1-1.234.605,5.861,5.861,0,0,1-1.586.205A8.205,8.205,0,0,1,20950.627,23411.748Zm-10.535.152a3.06,3.06,0,0,1-1.012-.564,2.654,2.654,0,0,1-.682-.922,3.048,3.048,0,0,1-.246-1.27v-.035a3.023,3.023,0,0,1,.271-1.3,2.562,2.562,0,0,1,.764-.934,3.442,3.442,0,0,1,1.168-.564,5.682,5.682,0,0,1,1.539-.193,6.874,6.874,0,0,1,1.275.111,7.276,7.276,0,0,1,1.018.258v-.158a1.438,1.438,0,0,0-.471-1.15,2.165,2.165,0,0,0-1.434-.406,5.909,5.909,0,0,0-1.381.146,9.8,9.8,0,0,0-1.252.383l-.687-2.363a10.548,10.548,0,0,1,1.723-.539,10.25,10.25,0,0,1,2.145-.2,6.859,6.859,0,0,1,2.18.3,3.649,3.649,0,0,1,1.451.863,2.976,2.976,0,0,1,.787,1.281,5.826,5.826,0,0,1,.24,1.756v5.488h-3.318v-.992a3.7,3.7,0,0,1-1.176.875,3.738,3.738,0,0,1-1.633.328A4.023,4.023,0,0,1,20940.092,23411.9Zm1.686-3.842a1.068,1.068,0,0,0-.4.857v.035a.945.945,0,0,0,.34.77,1.3,1.3,0,0,0,.846.27,1.7,1.7,0,0,0,1.2-.422,1.482,1.482,0,0,0,.459-1.146v-.439a2.871,2.871,0,0,0-.594-.178,3.525,3.525,0,0,0-.711-.07A1.787,1.787,0,0,0,20941.777,23408.059Zm-10.787,3.689a7.28,7.28,0,0,1-2.156-1.064l1.258-2.033a6.761,6.761,0,0,0,1.686.824,5.251,5.251,0,0,0,1.592.27q.847,0,.848-.512v-.035c0-.187-.125-.334-.389-.439a10.561,10.561,0,0,0-1.146-.371,12.233,12.233,0,0,1-1.322-.412,4.462,4.462,0,0,1-1.074-.586,2.533,2.533,0,0,1-.723-.836,2.491,2.491,0,0,1-.27-1.221v-.035a3.022,3.022,0,0,1,.293-1.346,2.813,2.813,0,0,1,.8-.988,3.7,3.7,0,0,1,1.205-.609,5.211,5.211,0,0,1,1.527-.213,7.813,7.813,0,0,1,2.086.289,7.11,7.11,0,0,1,1.852.822l-1.146,2.121a8.236,8.236,0,0,0-1.5-.646,4.542,4.542,0,0,0-1.322-.24,1.041,1.041,0,0,0-.582.135.39.39,0,0,0-.193.328v.035c0,.184.135.336.4.447s.646.246,1.152.4c.471.131.916.271,1.328.43a4.419,4.419,0,0,1,1.074.582,2.523,2.523,0,0,1,.723.84,2.455,2.455,0,0,1,.266,1.182v.035a3.173,3.173,0,0,1-.283,1.387,2.781,2.781,0,0,1-.793,1,3.414,3.414,0,0,1-1.238.605,5.886,5.886,0,0,1-1.588.205A8.2,8.2,0,0,1,20930.99,23411.748Zm-8.9,0a7.18,7.18,0,0,1-2.15-1.064l1.252-2.033a6.928,6.928,0,0,0,1.686.824,5.288,5.288,0,0,0,1.6.27q.847,0,.846-.512v-.035c0-.187-.129-.334-.389-.439a10.4,10.4,0,0,0-1.15-.371,12.371,12.371,0,0,1-1.322-.412,4.477,4.477,0,0,1-1.076-.586,2.378,2.378,0,0,1-.986-2.057v-.035a3.022,3.022,0,0,1,.293-1.346,2.756,2.756,0,0,1,.8-.988,3.755,3.755,0,0,1,1.211-.609,5.174,5.174,0,0,1,1.527-.213,7.738,7.738,0,0,1,2.08.289,7.11,7.11,0,0,1,1.852.822l-1.146,2.121a8.128,8.128,0,0,0-1.5-.646,4.531,4.531,0,0,0-1.322-.24,1.032,1.032,0,0,0-.582.135.39.39,0,0,0-.193.328v.035c0,.184.129.336.395.447s.652.246,1.156.4c.471.131.912.271,1.322.43a4.469,4.469,0,0,1,1.076.582,2.546,2.546,0,0,1,.723.84,2.478,2.478,0,0,1,.264,1.182v.035a3.2,3.2,0,0,1-.281,1.387,2.8,2.8,0,0,1-.793,1,3.442,3.442,0,0,1-1.234.605,5.871,5.871,0,0,1-1.586.205A8.248,8.248,0,0,1,20922.094,23411.748Zm-10.529.152a3.022,3.022,0,0,1-1.016-.564,2.63,2.63,0,0,1-.682-.922,3.048,3.048,0,0,1-.246-1.27v-.035a2.968,2.968,0,0,1,.275-1.3,2.567,2.567,0,0,1,.758-.934,3.483,3.483,0,0,1,1.176-.564,5.648,5.648,0,0,1,1.533-.193,6.844,6.844,0,0,1,1.275.111,7.034,7.034,0,0,1,1.016.258v-.158a1.452,1.452,0,0,0-.463-1.15,2.192,2.192,0,0,0-1.441-.406,5.84,5.84,0,0,0-1.373.146,9.777,9.777,0,0,0-1.258.383l-.687-2.363a10.525,10.525,0,0,1,1.721-.539,10.25,10.25,0,0,1,2.145-.2,6.851,6.851,0,0,1,2.18.3,3.659,3.659,0,0,1,1.457.863,3.025,3.025,0,0,1,.783,1.281,5.826,5.826,0,0,1,.24,1.756v5.488h-3.32v-.992a3.611,3.611,0,0,1-1.176.875,3.723,3.723,0,0,1-1.627.328A4.014,4.014,0,0,1,20911.564,23411.9Zm1.682-3.842a1.059,1.059,0,0,0-.395.857v.035a.937.937,0,0,0,.336.77,1.291,1.291,0,0,0,.846.27,1.7,1.7,0,0,0,1.2-.422,1.488,1.488,0,0,0,.457-1.146v-.439a2.884,2.884,0,0,0-.588-.178,3.569,3.569,0,0,0-.717-.07A1.781,1.781,0,0,0,20913.246,23408.059Zm-8.232,3.824v-5.17a1.725,1.725,0,0,0-.369-1.2,1.217,1.217,0,0,0-.965-.406,1.327,1.327,0,0,0-1,.406,1.642,1.642,0,0,0-.395,1.2v5.17h-3.373V23399h3.373v4.641a4.6,4.6,0,0,1,1.141-1.057,2.963,2.963,0,0,1,1.7-.459,3.1,3.1,0,0,1,2.4.936,3.653,3.653,0,0,1,.863,2.578v6.246Z" transform="translate(-20884.234 -23399)" stroke="rgba(0,0,0,0)" stroke-width="1"/>
      <path id="Union_70" data-name="Union 70" d="M20940.041,23413.934c-.213-.029-.412-.053-.605-.076v-2.115a1.281,1.281,0,0,0,.211.018h.211a.955.955,0,0,0,.705-.234,1.158,1.158,0,0,0,.236-.822v-8.533h3.2v8.668a4.316,4.316,0,0,1-.223,1.463,2.284,2.284,0,0,1-.629.969,2.481,2.481,0,0,1-1.021.535,5.819,5.819,0,0,1-2.086.129Zm-26.838-2.844a4.838,4.838,0,0,1-1.58-1.016,4.581,4.581,0,0,1-1.41-3.326v-.035a4.494,4.494,0,0,1,.377-1.834,4.589,4.589,0,0,1,1.051-1.51,5.07,5.07,0,0,1,1.588-1.023,5.568,5.568,0,0,1,4.018,0,5.056,5.056,0,0,1,1.588,1.018,4.485,4.485,0,0,1,1.039,1.492,4.608,4.608,0,0,1,.365,1.822v.035a4.486,4.486,0,0,1-.377,1.838,4.666,4.666,0,0,1-1.045,1.506,5.006,5.006,0,0,1-1.594,1.027,5.587,5.587,0,0,1-4.02.006Zm1.217-6.246a1.773,1.773,0,0,0-.594.43,1.985,1.985,0,0,0-.375.641,2.121,2.121,0,0,0-.135.77v.029a2.128,2.128,0,0,0,.141.781,1.863,1.863,0,0,0,.4.641,1.94,1.94,0,0,0,.611.439,1.74,1.74,0,0,0,.77.166,1.981,1.981,0,0,0,.789-.154,1.784,1.784,0,0,0,.6-.434,2.064,2.064,0,0,0,.377-.641,2.229,2.229,0,0,0,.135-.764v-.035a2.169,2.169,0,0,0-.146-.781,1.953,1.953,0,0,0-.4-.641,2.075,2.075,0,0,0-.615-.441,1.751,1.751,0,0,0-.771-.164A1.914,1.914,0,0,0,20914.42,23404.844Zm64.121,6.416a2.875,2.875,0,0,1-.965-.539,2.418,2.418,0,0,1-.645-.871,2.933,2.933,0,0,1-.236-1.209v-.029a2.826,2.826,0,0,1,.26-1.24,2.426,2.426,0,0,1,.723-.889,3.3,3.3,0,0,1,1.115-.539,5.294,5.294,0,0,1,1.457-.184,6.622,6.622,0,0,1,1.217.107,6.713,6.713,0,0,1,.965.246v-.152a1.346,1.346,0,0,0-.447-1.088,2.036,2.036,0,0,0-1.363-.389,5.662,5.662,0,0,0-1.311.137,8.106,8.106,0,0,0-1.187.369l-.652-2.25a10.043,10.043,0,0,1,1.635-.512,9.355,9.355,0,0,1,2.033-.193,6.467,6.467,0,0,1,2.074.287,3.535,3.535,0,0,1,1.381.818,2.944,2.944,0,0,1,.746,1.221,5.439,5.439,0,0,1,.229,1.664v5.217h-3.154v-.939a3.5,3.5,0,0,1-1.117.828,3.569,3.569,0,0,1-1.551.313A3.73,3.73,0,0,1,20978.541,23411.26Zm1.6-3.648a1,1,0,0,0-.381.816v.029a.873.873,0,0,0,.322.729,1.2,1.2,0,0,0,.8.26,1.612,1.612,0,0,0,1.141-.4,1.422,1.422,0,0,0,.436-1.092v-.418a3,3,0,0,0-.564-.164,3.2,3.2,0,0,0-.676-.07A1.665,1.665,0,0,0,20980.145,23407.611Zm-27.93,3.648a2.866,2.866,0,0,1-.963-.539,2.423,2.423,0,0,1-.646-.871,2.966,2.966,0,0,1-.234-1.209v-.029a2.773,2.773,0,0,1,.264-1.24,2.373,2.373,0,0,1,.717-.889,3.306,3.306,0,0,1,1.117-.539,5.274,5.274,0,0,1,1.457-.184,6.591,6.591,0,0,1,1.217.107,6.68,6.68,0,0,1,.963.246v-.152a1.355,1.355,0,0,0-.441-1.088,2.049,2.049,0,0,0-1.369-.389,5.645,5.645,0,0,0-1.309.137,8.033,8.033,0,0,0-1.187.369l-.652-2.25a10.02,10.02,0,0,1,1.633-.512,9.412,9.412,0,0,1,2.039-.193,6.453,6.453,0,0,1,2.068.287,3.521,3.521,0,0,1,1.381.818,2.865,2.865,0,0,1,.746,1.221,5.377,5.377,0,0,1,.23,1.664v5.217h-3.156v-.939a3.515,3.515,0,0,1-1.111.828,3.6,3.6,0,0,1-1.551.313A3.758,3.758,0,0,1,20952.215,23411.26Zm1.605-3.648a.993.993,0,0,0-.377.816v.029a.881.881,0,0,0,.318.729,1.2,1.2,0,0,0,.8.26,1.615,1.615,0,0,0,1.141-.4,1.421,1.421,0,0,0,.434-1.092v-.418a2.918,2.918,0,0,0-.564-.164,3.172,3.172,0,0,0-.676-.07A1.671,1.671,0,0,0,20953.82,23407.611Zm-21.742,3.648a2.866,2.866,0,0,1-.963-.539,2.4,2.4,0,0,1-.646-.871,2.933,2.933,0,0,1-.236-1.209v-.029a2.826,2.826,0,0,1,.26-1.24,2.426,2.426,0,0,1,.723-.889,3.35,3.35,0,0,1,1.115-.539,5.3,5.3,0,0,1,1.459-.184,6.57,6.57,0,0,1,1.215.107,6.713,6.713,0,0,1,.965.246v-.152a1.355,1.355,0,0,0-.441-1.088,2.049,2.049,0,0,0-1.369-.389,5.662,5.662,0,0,0-1.311.137,8.18,8.18,0,0,0-1.187.369l-.652-2.25a10.043,10.043,0,0,1,1.635-.512,9.392,9.392,0,0,1,2.033-.193,6.467,6.467,0,0,1,2.074.287,3.493,3.493,0,0,1,1.381.818,2.944,2.944,0,0,1,.746,1.221,5.439,5.439,0,0,1,.229,1.664v5.217h-3.154v-.939a3.537,3.537,0,0,1-1.111.828,3.606,3.606,0,0,1-1.551.313A3.75,3.75,0,0,1,20932.078,23411.26Zm1.6-3.648a1,1,0,0,0-.381.816v.029a.89.89,0,0,0,.322.729,1.2,1.2,0,0,0,.8.26,1.6,1.6,0,0,0,1.141-.4,1.415,1.415,0,0,0,.436-1.092v-.418a2.959,2.959,0,0,0-.564-.164,3.185,3.185,0,0,0-.676-.07A1.665,1.665,0,0,0,20933.682,23407.611Zm-32.3,3.5a3.684,3.684,0,0,1-1.27-.928,4.517,4.517,0,0,1-.875-1.475,5.583,5.583,0,0,1-.328-1.963v-.035a5.719,5.719,0,0,1,.322-1.986,4.433,4.433,0,0,1,.869-1.492,3.921,3.921,0,0,1,1.275-.941,3.671,3.671,0,0,1,1.527-.322,3.2,3.2,0,0,1,1.676.393,4.438,4.438,0,0,1,1.1.912V23399h3.191v12.24h-3.191v-1.209a4.928,4.928,0,0,1-1.1.992,3,3,0,0,1-1.658.418A3.66,3.66,0,0,1,20901.381,23411.113Zm1.787-6.328a1.837,1.837,0,0,0-.588.418,2.219,2.219,0,0,0-.4.645,2.249,2.249,0,0,0-.152.83v.035a2.248,2.248,0,0,0,.152.834,2.342,2.342,0,0,0,.4.652,1.741,1.741,0,0,0,.588.424,1.667,1.667,0,0,0,.723.152,1.743,1.743,0,0,0,1.3-.576,2.056,2.056,0,0,0,.4-.652,2.329,2.329,0,0,0,.143-.834v-.035a2.243,2.243,0,0,0-.143-.818,1.958,1.958,0,0,0-.4-.645,1.723,1.723,0,0,0-.582-.43,1.776,1.776,0,0,0-.723-.152A1.756,1.756,0,0,0,20903.168,23404.785Zm69.156,6.457v-4.93a1.653,1.653,0,0,0-.336-1.133,1.131,1.131,0,0,0-.9-.377,1.241,1.241,0,0,0-.934.377,1.573,1.573,0,0,0-.365,1.133v4.93h-3.2v-4.93a1.663,1.663,0,0,0-.334-1.133,1.134,1.134,0,0,0-.9-.377,1.2,1.2,0,0,0-.924.377,1.58,1.58,0,0,0-.357,1.133v4.93h-3.2v-9.072h3.2v1.24a4.481,4.481,0,0,1,1.086-1.006,2.816,2.816,0,0,1,1.611-.434,3.147,3.147,0,0,1,1.574.381,2.677,2.677,0,0,1,1.041,1.094,4.623,4.623,0,0,1,1.309-1.082,3.522,3.522,0,0,1,1.729-.393,3,3,0,0,1,2.279.863,3.427,3.427,0,0,1,.822,2.457v5.951Zm-26.461,0V23399h3.2v12.24Zm-24.937,0v-2.1l4.2-4.453h-4.043v-2.516h8.268v2.1l-4.207,4.455h4.207v2.514Zm19.8-9.895V23399h3.338v2.346Z" transform="translate(-20898.91 -23378.975)" fill="rgba(0,0,0,0)" stroke="#000" stroke-width="0.5"/>
    </g>
  </g>
</svg>
