<svg xmlns="http://www.w3.org/2000/svg" width="204.445" height="57.784" viewBox="0 0 204.445 57.784">
  <g id="Group_1653" data-name="Group 1653" transform="translate(9.342 -0.469)">
    <g id="Group_1652" data-name="Group 1652" transform="translate(-9.342 0.469)">
      <path id="Path_18239" data-name="Path 18239" d="M273.676,219.12c0-12.028,9.974-20.242,22.9-20.242s22.9,8.214,22.9,20.242-9.975,20.241-22.9,20.241S273.676,231.147,273.676,219.12Zm32.933,0c0-5.457-3.952-9.8-10.037-9.8s-10.037,4.342-10.037,9.8,3.952,9.8,10.037,9.8S306.609,224.576,306.609,219.12Z" transform="translate(-232.204 -181.577)" fill="#1a1818"/>
      <path id="Path_18240" data-name="Path 18240" d="M384.588,239.517V200.383H397.26v28.808h15.871v10.326Z" transform="translate(-292.242 -182.437)" fill="#1a1818"/>
      <path id="Path_18241" data-name="Path 18241" d="M457.892,239.517V200.383h18.694c13.173,0,22.959,7.04,22.959,19.537s-9.786,19.6-22.9,19.6Zm28.793-19.6c0-5.281-3.262-9.212-10.037-9.212h-6.085v18.482h6.022C482.922,229.191,486.685,224.849,486.685,219.921Z" transform="translate(-331.923 -182.437)" fill="#1a1818"/>
      <path id="Path_18242" data-name="Path 18242" d="M559.779,235.53v24.056H591.52V249.128H572.45v-4.752h18.631V235.53Z" transform="translate(-387.075 -202.505)" fill="#1a1818"/>
      <rect id="Rectangle_932" data-name="Rectangle 932" width="31.742" height="10.326" transform="translate(172.704 17.946)" fill="#1a1818"/>
      <path id="Path_18243" data-name="Path 18243" d="M211.622,200.383l-9.033,26.344L197.1,210.709H183.263l11.36,28.808h15.934l15.432-39.134Z" transform="translate(-183.263 -182.436)" fill="#1a1818"/>
      <path id="Path_18244" data-name="Path 18244" d="M262.537,171.745l5.492-13.194h-9.2a8.323,8.323,0,0,0-7.959,5.43l-2.768,7.764Z" transform="translate(-218.363 -158.551)" fill="#d60812"/>
    </g>
  </g>
</svg>
