<svg xmlns="http://www.w3.org/2000/svg" xmlns:xlink="http://www.w3.org/1999/xlink" width="67.482" height="70" viewBox="0 0 67.482 70">
  <defs>
    <clipPath id="clip-path">
      <rect id="Rectangle_1612" data-name="Rectangle 1612" width="67.482" height="70"/>
    </clipPath>
  </defs>
  <g id="Group_2459" data-name="Group 2459" transform="translate(0 0)">
    <g id="Group_2459-2" data-name="Group 2459" transform="translate(0 0)" clip-path="url(#clip-path)">
      <path id="Path_19079" data-name="Path 19079" d="M62.446,43.327V27.081a1.018,1.018,0,0,0-.079-.393c3.246-2.677,5.115-5.862,5.115-9.314C67.482,7.632,52.661,0,33.741,0S0,7.632,0,17.374c0,3.452,1.87,6.637,5.115,9.314a1.018,1.018,0,0,0-.079.393V43.338C1.75,46.062,0,49.261,0,52.626,0,62.368,14.821,70,33.741,70s33.741-7.632,33.741-17.374c0-3.36-1.75-6.563-5.036-9.3m-2.014,9.3c0,4.209-10.4,10.324-26.691,10.324S7.05,56.835,7.05,52.626v-.671c4.293,4.563,14.933,7.973,26.691,7.973s22.4-3.411,26.691-7.973Zm0-5.036c0,4.209-10.4,10.324-26.691,10.324S7.05,51.8,7.05,47.59v-.671c4.293,4.563,14.933,7.973,26.691,7.973s22.4-3.411,26.691-7.973ZM2.014,17.374c0-8.469,14.232-15.36,31.727-15.36S65.468,8.9,65.468,17.374s-14.232,15.36-31.727,15.36S2.014,25.843,2.014,17.374M60.321,28.189C59.21,32.337,49.1,37.77,33.741,37.77S8.272,32.337,7.161,28.189c6.128,4.017,15.668,6.559,26.58,6.559s20.452-2.542,26.58-6.559m-26.58,11.6c11.758,0,22.4-3.411,26.691-7.973v.671c0,4.209-10.4,10.324-26.691,10.324S7.05,36.691,7.05,32.482v-.671c4.293,4.563,14.933,7.973,26.691,7.973m0,5.036c11.758,0,22.4-3.411,26.691-7.973v.671c0,4.209-10.4,10.324-26.691,10.324S7.05,41.727,7.05,37.518v-.671c4.293,4.563,14.933,7.973,26.691,7.973m0,5.036c11.758,0,22.4-3.411,26.691-7.973v.671c0,4.209-10.4,10.324-26.691,10.324S7.05,46.763,7.05,42.554v-.671c4.293,4.563,14.933,7.973,26.691,7.973m0,18.129c-17.495,0-31.727-6.89-31.727-15.36A9.459,9.459,0,0,1,5.036,46.07v6.556c0,6.573,13.413,12.338,28.705,12.338S62.446,59.2,62.446,52.626V46.065a9.491,9.491,0,0,1,3.022,6.561c0,8.469-14.232,15.36-31.727,15.36" transform="translate(0 0)"/>
      <path id="Path_19080" data-name="Path 19080" d="M28.82,19.568c5.6,0,9.82-2.056,9.82-4.784S34.419,10,28.82,10,19,12.057,19,14.784s4.221,4.784,9.82,4.784m0-7.554c4.765,0,7.806,1.64,7.806,2.77s-3.04,2.77-7.806,2.77-7.806-1.64-7.806-2.77,3.04-2.77,7.806-2.77" transform="translate(4.921 2.59)"/>
    </g>
  </g>
</svg>
