<svg xmlns="http://www.w3.org/2000/svg" width="39.333" height="68.611" viewBox="0 0 39.333 68.611">
  <g id="laboratory-2" transform="translate(0 -1.389)">
    <g id="Group_1694" data-name="Group 1694" transform="translate(0 18.61)">
      <g id="Group_1693" data-name="Group 1693">
        <path id="Path_18326" data-name="Path 18326" d="M37.81,158.306l-14.2-21.945V118.722a1.389,1.389,0,0,0-1.389-1.389H15.281a1.389,1.389,0,0,0-1.389,1.389V136.4L.949,158.4a6.847,6.847,0,0,0,5.9,10.32H32.142a6.751,6.751,0,0,0,5.668-10.417Zm-5.668,7.639H6.85a4.069,4.069,0,0,1-3.514-6.133l13.142-22.329a1.389,1.389,0,0,0,.192-.7V120.111h4.167v16.667a1.389,1.389,0,0,0,.222.754l14.417,22.282a3.972,3.972,0,0,1-3.333,6.131Z" transform="translate(-0.003 -117.333)" fill="#1a1818"/>
      </g>
    </g>
    <g id="Group_1696" data-name="Group 1696" transform="translate(5.628 42.305)">
      <g id="Group_1695" data-name="Group 1695">
        <path id="Path_18327" data-name="Path 18327" d="M57.6,300.714l-2.394-1.407L43.414,319.353a1.389,1.389,0,0,0,1.2,2.093h9.649v-2.778H47.039Z" transform="translate(-43.222 -299.307)" fill="#1a1818"/>
      </g>
    </g>
    <g id="Group_1706" data-name="Group 1706" transform="translate(31 9.722)">
      <g id="Group_1705" data-name="Group 1705">
        <path id="Path_18332" data-name="Path 18332" d="M388.169,74.667a4.167,4.167,0,1,0,4.167,4.167A4.167,4.167,0,0,0,388.169,74.667Zm0,5.556a1.389,1.389,0,1,1,1.389-1.389A1.389,1.389,0,0,1,388.169,80.223Z" transform="translate(-384.002 -74.667)" fill="#1a1818"/>
      </g>
    </g>
    <g id="Group_1708" data-name="Group 1708" transform="translate(0 11.761)">
      <g id="Group_1707" data-name="Group 1707">
        <path id="Path_18333" data-name="Path 18333" d="M4.863,85.333a4.861,4.861,0,1,0,4.861,4.861A4.861,4.861,0,0,0,4.863,85.333Zm0,6.945a2.083,2.083,0,1,1,2.083-2.083A2.083,2.083,0,0,1,4.863,92.278Z" transform="translate(-0.002 -85.333)" fill="#1a1818"/>
      </g>
    </g>
    <g id="Group_1710" data-name="Group 1710" transform="translate(6.944 1.389)">
      <g id="Group_1709" data-name="Group 1709">
        <path id="Path_18334" data-name="Path 18334" d="M57.5,10.667a4.167,4.167,0,1,0,4.167,4.167A4.167,4.167,0,0,0,57.5,10.667Zm0,5.556a1.389,1.389,0,1,1,1.389-1.389A1.389,1.389,0,0,1,57.5,16.223Z" transform="translate(-53.335 -10.667)" fill="#1a1818"/>
      </g>
    </g>
    <g id="Group_1720" data-name="Group 1720" transform="translate(2.778 26.304)">
      <g id="Group_1719" data-name="Group 1719">
        <rect id="Rectangle_1024" data-name="Rectangle 1024" width="2.778" height="2.778" fill="#1a1818"/>
      </g>
    </g>
    <g id="Group_1722" data-name="Group 1722" transform="translate(6.944 33.611)">
      <g id="Group_1721" data-name="Group 1721">
        <rect id="Rectangle_1025" data-name="Rectangle 1025" width="2.778" height="2.778" fill="#1a1818"/>
      </g>
    </g>
    <g id="Group_1730" data-name="Group 1730" transform="translate(29.227 60.277)">
      <g id="Group_1729" data-name="Group 1729">
        <rect id="Rectangle_1029" data-name="Rectangle 1029" width="2.778" height="2.778" fill="#1a1818"/>
      </g>
    </g>
    <g id="Group_1732" data-name="Group 1732" transform="translate(24.843 54.07)">
      <g id="Group_1731" data-name="Group 1731">
        <rect id="Rectangle_1030" data-name="Rectangle 1030" width="2.778" height="2.778" fill="#1a1818"/>
      </g>
    </g>
  </g>
</svg>
