<svg id="Group_2441" data-name="Group 2441" xmlns="http://www.w3.org/2000/svg" xmlns:xlink="http://www.w3.org/1999/xlink" width="51.836" height="70" viewBox="0 0 51.836 70">
  <defs>
    <clipPath id="clip-path">
      <rect id="Rectangle_1604" data-name="Rectangle 1604" width="51.836" height="70" fill="none"/>
    </clipPath>
  </defs>
  <g id="Group_2441-2" data-name="Group 2441" clip-path="url(#clip-path)">
    <path id="Path_19033" data-name="Path 19033" d="M25.918,70A26.354,26.354,0,0,1,7.584,62.97,25.032,25.032,0,0,1,0,44.572c0-5.95,2.45-12.795,7.479-20.926A193.062,193.062,0,0,1,21.758,4.371c1.1-1.355,2.131-2.635,3.106-3.862a1.346,1.346,0,0,1,2.107,0c.975,1.227,2.01,2.507,3.106,3.862a193.062,193.062,0,0,1,14.28,19.275c5.029,8.131,7.475,14.976,7.478,20.926a25.031,25.031,0,0,1-7.584,18.4A26.354,26.354,0,0,1,25.918,70m0-66.5q-1,1.24-2.067,2.561C14.925,17.1,2.7,32.215,2.692,44.573A22.367,22.367,0,0,0,9.441,61.02a23.676,23.676,0,0,0,16.478,6.288A23.676,23.676,0,0,0,42.4,61.02a22.366,22.366,0,0,0,6.749-16.447C49.136,32.215,36.911,17.1,27.985,6.064Q26.914,4.739,25.918,3.5" transform="translate(0 -0.001)" fill="#231f20"/>
    <path id="Path_19034" data-name="Path 19034" d="M82.729,306.15a7.313,7.313,0,0,1-5.03-1.965,4.767,4.767,0,0,0-6.7,0,7.421,7.421,0,0,1-10.06,0,4.71,4.71,0,0,0-3.352-1.377,1.346,1.346,0,0,1,0-2.692,7.313,7.313,0,0,1,5.03,1.965,4.766,4.766,0,0,0,6.7,0,7.422,7.422,0,0,1,10.06,0,4.767,4.767,0,0,0,6.7,0,7.313,7.313,0,0,1,5.03-1.965,1.346,1.346,0,0,1,0,2.692,4.71,4.71,0,0,0-3.352,1.377,7.313,7.313,0,0,1-5.03,1.965" transform="translate(-48.452 -258.563)" fill="#231f20"/>
  </g>
</svg>
