<svg xmlns="http://www.w3.org/2000/svg" width="51.285" height="70" viewBox="0 0 51.285 70">
  <g id="detergent" transform="translate(-14.507 -7)">
    <path id="Path_18339" data-name="Path 18339" d="M294.733,220.164a18.958,18.958,0,0,1,3.133,16.613,3.845,3.845,0,0,0,7.327,2.333,25.454,25.454,0,0,0-4.019-24.241l-.518-.662a4.161,4.161,0,0,0-6.583,5.092Zm1.115-3.753a1.568,1.568,0,0,1,2.762-.613l.518.662a22.87,22.87,0,0,1,3.613,21.784,1.3,1.3,0,0,1-2.183.341,1.247,1.247,0,0,1-.2-1.1,21.567,21.567,0,0,0-3.565-18.9l-.668-.876A1.564,1.564,0,0,1,295.848,216.411Zm0,0" transform="translate(-247.317 -178.936)" fill="#1a1818"/>
    <path id="Path_18340" data-name="Path 18340" d="M106.91,117.423a1.3,1.3,0,0,0,1.079.577H139.1a1.3,1.3,0,0,0,1.012-.486l3.241-4.052a33.833,33.833,0,0,0-5.516-47.731l-5.219-4.1V57.074a1.3,1.3,0,0,0-1.3-1.3h-1.3V50.593A2.593,2.593,0,0,0,127.434,48h-10.37a2.593,2.593,0,0,0-2.593,2.593v5.185h-1.3a1.3,1.3,0,0,0-1.3,1.3v4.705L110.149,63.8A44.642,44.642,0,0,0,106.91,117.423Zm10.153-66.831h10.37v5.185h-10.37Zm-4.947,14.892,2.041-2.381a1.294,1.294,0,0,0,.313-.844V58.37h15.556v2.593H117.063v2.593h13.811l5.363,4.213a31.241,31.241,0,0,1,5.093,44.074l-2.852,3.565H108.689A42.045,42.045,0,0,1,112.117,65.484Zm0,0" transform="translate(-84.971 -41)" fill="#1a1818"/>
    <path id="Path_18341" data-name="Path 18341" d="M150.907,261.815a14.88,14.88,0,0,0,12.426-6.68,1.294,1.294,0,0,0,.2-.932c-1.571-9.333-5.1-16.66-10.491-21.778a1.3,1.3,0,0,0-.778-.353,13.337,13.337,0,0,0-1.356-.073,14.907,14.907,0,0,0,0,29.815Zm0-27.222c.227,0,.453.009.675.023,4.7,4.62,7.822,11.176,9.3,19.5a12.315,12.315,0,1,1-9.979-19.525Zm0,0" transform="translate(-115.575 -195.185)" fill="#1a1818"/>
  </g>
</svg>
