<svg xmlns="http://www.w3.org/2000/svg" width="64.889" height="64.889" viewBox="0 0 64.889 64.889">
  <g id="filter-3" transform="translate(0 0)">
    <circle id="Ellipse_178" data-name="Ellipse 178" cx="1.298" cy="1.298" r="1.298" transform="translate(6.489 6.488)" fill="#231f20"/>
    <ellipse id="Ellipse_179" data-name="Ellipse 179" cx="2.596" cy="1.298" rx="2.596" ry="1.298" transform="translate(11.68 6.488)" fill="#231f20"/>
    <circle id="Ellipse_180" data-name="Ellipse 180" cx="1.298" cy="1.298" r="1.298" transform="translate(19.467 6.488)" fill="#231f20"/>
    <path id="Path_18493" data-name="Path 18493" d="M121.9,163.8h25.347a1.9,1.9,0,1,0,0-3.8H121.9a1.9,1.9,0,0,0,0,3.8Z" transform="translate(-104.792 -139.722)" fill="#231f20"/>
    <circle id="Ellipse_181" data-name="Ellipse 181" cx="2.596" cy="2.596" r="2.596" transform="translate(6.489 19.466)" fill="#231f20"/>
    <path id="Path_18494" data-name="Path 18494" d="M121.9,223.8h7.6a1.9,1.9,0,0,0,0-3.8h-7.6a1.9,1.9,0,1,0,0,3.8Z" transform="translate(-104.792 -192.118)" fill="#231f20"/>
    <circle id="Ellipse_182" data-name="Ellipse 182" cx="2.596" cy="2.596" r="2.596" transform="translate(6.489 27.252)" fill="#231f20"/>
    <path id="Path_18495" data-name="Path 18495" d="M121.9,283.8h7.6a1.9,1.9,0,0,0,0-3.8h-7.6a1.9,1.9,0,1,0,0,3.8Z" transform="translate(-104.792 -244.514)" fill="#231f20"/>
    <circle id="Ellipse_183" data-name="Ellipse 183" cx="2.596" cy="2.596" r="2.596" transform="translate(6.489 35.039)" fill="#231f20"/>
    <path id="Path_18496" data-name="Path 18496" d="M133.307,340H121.9a1.9,1.9,0,1,0,0,3.8h11.406a1.9,1.9,0,0,0,0-3.8Z" transform="translate(-104.792 -296.91)" fill="#231f20"/>
    <circle id="Ellipse_184" data-name="Ellipse 184" cx="2.596" cy="2.596" r="2.596" transform="translate(6.489 42.826)" fill="#231f20"/>
    <path id="Path_18497" data-name="Path 18497" d="M62.988,27.882H51.962V5.7a5.71,5.71,0,0,0-5.7-5.7H5.7A5.71,5.71,0,0,0,0,5.7v43.09a5.71,5.71,0,0,0,5.7,5.7h36.12v4.689A1.9,1.9,0,0,0,42.9,60.9l7.858,3.8a1.9,1.9,0,0,0,2.729-1.711V50.79L64.4,38.659a1.9,1.9,0,0,0,.488-1.272v-7.6a1.9,1.9,0,0,0-1.9-1.9Zm-1.9,7.6H34.219v-3.8H61.087ZM50.735,48.16H44.571l-7.984-8.872H58.719ZM48.16,5.7v6.97H29.149V3.8H46.259A1.9,1.9,0,0,1,48.16,5.7ZM3.8,5.7A1.9,1.9,0,0,1,5.7,3.8H25.347v8.872H3.8Zm0,43.09V16.476H48.16V27.882H32.318a1.9,1.9,0,0,0-1.9,1.9v7.6a1.9,1.9,0,0,0,.488,1.272L41.737,50.694H5.7A1.9,1.9,0,0,1,3.8,48.793ZM49.681,59.956l-4.056-1.962V51.962h4.056Z" transform="translate(0 0)" fill="#231f20"/>
  </g>
</svg>
