<svg xmlns="http://www.w3.org/2000/svg" width="25.829" height="70" viewBox="0 0 25.829 70">
  <path id="Path_19032" data-name="Path 19032" d="M26.8,143.034v-2.626H28.37a1.321,1.321,0,0,0,1.321-1.321V135.3a3.054,3.054,0,0,0-3.05-3.05h-9.5a3.054,3.054,0,0,0-3.05,3.05v3.787a1.321,1.321,0,0,0,1.321,1.321h1.4v2.916l-5.852,7.764a10.182,10.182,0,0,0-2.042,6.1V196.32a5.935,5.935,0,0,0,5.929,5.929H28.808a5.937,5.937,0,0,0,5.931-5.929V157.129a10.046,10.046,0,0,0-1.973-6Zm-10.069-5.268V135.3a.408.408,0,0,1,.408-.408h9.5a.408.408,0,0,1,.408.408v2.465Zm7.426,2.643v2.3H19.447v-2.3Zm4.649,59.2H14.835a3.29,3.29,0,0,1-3.286-3.286V179.875h9.769a1.321,1.321,0,0,0,0-2.643H11.543v-4.813h9.774a1.321,1.321,0,1,0,0-2.643H11.543v-4.814h9.774a1.321,1.321,0,1,0,0-2.643H11.543v-5.134a7.526,7.526,0,0,1,1.51-4.5l5.533-7.33h6.637l5.412,7.341a7.43,7.43,0,0,1,1.457,4.436v5.191H28.039a1.321,1.321,0,1,0,0,2.643h4.053v4.814H28.039a1.321,1.321,0,0,0,0,2.643h4.053v4.813H28.039a1.321,1.321,0,0,0,0,2.643h4.053V196.32A3.29,3.29,0,0,1,28.8,199.607Z" transform="translate(-8.91 -132.25)"/>
</svg>
