<svg viewBox="0 0 6 10" xmlns="http://www.w3.org/2000/svg">
<path d="M5.77952 9.78745C5.92651 9.64669 6 9.48396 6 9.29925C6 9.11411 5.92651 8.95117 5.77952 8.81041L1.79298 4.99295L5.79342 1.16217C5.93114 1.03029 6 0.871785 6 0.686649C6 0.501937 5.92651 0.339203 5.77952 0.19845C5.64136 0.06615 5.47341 4.60364e-08 5.27566 6.33241e-08C5.07791 8.06119e-08 4.91017 0.06615 4.77246 0.19845L0.178769 4.59668C0.114765 4.6584 0.068859 4.72222 0.0410504 4.78816C0.0136833 4.8541 -5.23348e-07 4.92236 -5.17177e-07 4.99295C-5.11006e-07 5.06354 0.0136833 5.1318 0.0410504 5.19774C0.0688591 5.26368 0.114765 5.3275 0.178769 5.38922L4.78636 9.80076C4.93335 9.94194 5.10108 10.0081 5.28956 9.99921C5.47804 9.99034 5.64136 9.91975 5.77952 9.78745Z" />
</svg>
