<svg xmlns="http://www.w3.org/2000/svg" viewBox="0 0 24 23.997">
  <path d="M102.831,97.511c-1-1.023-3.824-2.938-5.679-2.938a2.017,2.017,0,0,0-1.111.293A6.1,6.1,0,0,1,94.064,95.9c-.191,0-.4-.17-.845-.559l-.075-.068a23.653,23.653,0,0,1-2-1.868l-.123-.13c-.089-.089-.164-.17-.239-.245-.423-.436-.729-.75-1.813-1.977l-.048-.055c-.518-.586-.859-.968-.879-1.248s.218-.716.825-1.541a3.371,3.371,0,0,0,.089-3.647,16.592,16.592,0,0,0-2.2-3.15l-.068-.082A2.943,2.943,0,0,0,84.384,80.1a4.093,4.093,0,0,0-2.182.791c-.034.02-.068.048-.1.068a4.375,4.375,0,0,0-1.9,2.263c-.389,1.261-.648,2.9,1.213,6.3a30.44,30.44,0,0,0,5.386,7.3,32.539,32.539,0,0,0,5.317,4.527c2.413,1.745,4.731,2.747,6.354,2.747a4.636,4.636,0,0,0,4.384-2.038C104.631,99.918,103.895,98.609,102.831,97.511Z" transform="translate(-79.927 -80.1)"/>
</svg>
