<svg xmlns="http://www.w3.org/2000/svg" viewBox="0 0 27.072 22">
  <path d="M30.646,12.93a11.051,11.051,0,0,1-3.19.874A5.564,5.564,0,0,0,29.9,10.732a11.118,11.118,0,0,1-3.527,1.349,5.559,5.559,0,0,0-9.464,5.066,15.77,15.77,0,0,1-11.448-5.8,5.561,5.561,0,0,0,1.719,7.415,5.538,5.538,0,0,1-2.516-.7c0,.023,0,.047,0,.07a5.558,5.558,0,0,0,4.456,5.446,5.584,5.584,0,0,1-1.463.195,5.5,5.5,0,0,1-1.045-.1A5.56,5.56,0,0,0,11.8,27.531a11.207,11.207,0,0,1-8.223,2.3,15.717,15.717,0,0,0,8.514,2.5,15.694,15.694,0,0,0,15.8-15.8q0-.361-.015-.719A11.249,11.249,0,0,0,30.646,12.93Z" transform="translate(-3.574 -10.326)" />
</svg>
