<svg version="1.1" xmlns="http://www.w3.org/2000/svg" xmlns:xlink="http://www.w3.org/1999/xlink" viewBox="0 0 500 500" xml:space="preserve">
<path d="M494.028,150.432c0,0-4.87-34.317-19.796-49.435c-18.935-19.834-40.164-19.93-49.904-21.09
	c-69.674-5.041-174.217-5.041-174.217-5.041h-0.215c0,0-104.531,0-174.225,5.041c-9.733,1.16-30.957,1.255-49.897,21.09
	c-14.933,15.117-19.79,49.435-19.79,49.435S1,190.734,1,231.038v37.78c0,40.29,4.984,80.594,4.984,80.594s4.857,34.316,19.79,49.434
	c18.94,19.834,43.823,19.2,54.907,21.28c39.846,3.83,169.322,5.009,169.322,5.009s104.651-0.164,174.325-5.187
	c9.74-1.167,30.97-1.269,49.904-21.103c14.926-15.117,19.796-49.434,19.796-49.434S499,309.107,499,268.817v-37.78
	C499,190.734,494.028,150.432,494.028,150.432z M198.591,314.586l-0.02-139.907l134.562,70.195L198.591,314.586z"/>
</svg>
